<svg width="595" height="842" viewBox="0 0 595 842" fill="none" xmlns="http://www.w3.org/2000/svg" xmlns:xlink="http://www.w3.org/1999/xlink">
<rect width="595" height="842" fill="white"/>
<image width="36" height="36" x="500" y="770" xlink:href="{{qrCode}}"></image>
<image width="112" height="44" x="290" y="536" xlink:href="{{groomSignature}}"></image>
<image width="112" height="44" x="410" y="536"  xlink:href="{{brideSignature}}"></image>
{{#ifCond printInAdvance '!==' true}}<image width="190.241" height="65.8389" x="321.759" y="656.829" xlink:href="{{registrar.signature}}"></image>{{/ifCond}}
<g clip-path="url(#clip0_1157_5110)">
<text fill="#8D8D8D" xml:space="preserve" style="white-space: pre" font-family="Noto Sans" font-size="6" font-weight="600" letter-spacing="0px"><tspan x="62" y="780.593">CAUTION : THERE ARE OFFENCES RELATING TO FALSIFYING OR ALTERING A CERTIFICATE AND USING OR POSSESSING A FALSE CERTIFICATE </tspan><tspan x="62" y="790.593">IS NOT PROOF OF IDENTITY / ATTENTION : IL EXISTE DES INFRACTIONS RELATIVES A LA FALSIFIATION OU &#xc0; LA MODIFICATION D&#39;UN </tspan><tspan x="62" y="800.593">CERTIFICAT ET A L&#39;UTILISATION OU LA POSSESSION D&#39;UN FAUX CERTIFICAT. UN CERTIFICAT N&#39;EST PAS UNE PREUVE D&#39;IDENTITE</tspan></text>
</g>
<path d="M62 762.075H533.42V761.105H62V762.075Z" fill="#ECECEC"/>
<g clip-path="url(#clip1_1157_5110)">
<path d="M324.882 62.4295C324.885 72.0271 324.873 81.6277 324.888 91.2253C324.895 91.6475 324.764 92.0479 324.547 92.3862C324.345 92.6966 324.066 92.9511 323.733 93.1219L298.786 107.518C298.441 107.714 298.075 107.81 297.718 107.81C297.351 107.81 296.981 107.708 296.652 107.518L271.717 93.1343C271.376 92.9636 271.087 92.7059 270.882 92.3924C270.661 92.0479 270.531 91.6475 270.531 91.2222L270.54 91.0298L270.534 62.3178C270.528 61.9329 270.633 61.5697 270.814 61.2562L270.82 61.25C271.006 60.9272 271.276 60.6602 271.599 60.4709L296.637 46.0218C296.981 45.8262 297.351 45.73 297.705 45.73C298.072 45.73 298.444 45.8324 298.77 46.0218L323.817 60.474C324.168 60.6757 324.438 60.9675 324.621 61.2996L324.628 61.3059C324.811 61.6473 324.901 62.0384 324.882 62.4295Z" fill="#EFCFA4"/>
<path fill-rule="evenodd" clip-rule="evenodd" d="M306.059 100.857H289.367L297.711 105.671L306.059 100.857Z" fill="#EFCFA4"/>
<path fill-rule="evenodd" clip-rule="evenodd" d="M289.367 100.857H306.059L314.407 96.0396H281.019L289.367 100.857Z" fill="#F1B162"/>
<path fill-rule="evenodd" clip-rule="evenodd" d="M281.019 96.0396H314.407L322.752 91.2222H272.671L281.019 96.0396Z" fill="#C86E00"/>
<path fill-rule="evenodd" clip-rule="evenodd" d="M272.671 91.2222H322.752V83.1549H272.671V91.2222Z" fill="#EFCFA4"/>
<path fill-rule="evenodd" clip-rule="evenodd" d="M285.124 83.1549H310.165L303.904 72.3188L298.733 75.3018L291.96 79.2097L285.124 83.1549Z" fill="#E2F5F4"/>
<path fill-rule="evenodd" clip-rule="evenodd" d="M303.904 72.3188L310.165 83.1549H322.684L303.904 72.3188Z" fill="#038E86"/>
<path fill-rule="evenodd" clip-rule="evenodd" d="M303.904 72.3188L322.684 83.1549L309.637 60.5826L291.435 71.0897L298.733 75.3018L303.904 72.3188Z" fill="#E2F5F4"/>
<path fill-rule="evenodd" clip-rule="evenodd" d="M322.684 83.1549L309.637 60.5826L322.749 68.1502L322.684 83.1549Z" fill="#038E86"/>
<path fill-rule="evenodd" clip-rule="evenodd" d="M291.96 79.2097L285.183 67.4828L272.668 74.7058L272.671 83.1549L285.124 83.1549L291.96 79.2097Z" fill="#E2F5F4"/>
<path fill-rule="evenodd" clip-rule="evenodd" d="M285.183 67.4828L291.96 79.2097L298.733 75.3018L291.435 71.0897L285.183 67.4828Z" fill="#038E86"/>
<path fill-rule="evenodd" clip-rule="evenodd" d="M285.183 67.4828L291.435 71.0897L309.637 60.5857L322.749 68.1533V62.3209L297.708 47.8686L272.668 62.3178L272.671 74.7027L285.183 67.4828ZM297.708 61.2717C295.944 61.2717 294.516 59.8439 294.516 58.0839C294.516 56.3208 295.944 54.893 297.708 54.893C299.469 54.893 300.901 56.3208 300.901 58.0839C300.898 59.8439 299.469 61.2717 297.708 61.2717Z" fill="#EEEEEE"/>
<path fill-rule="evenodd" clip-rule="evenodd" d="M297.708 61.2717C299.472 61.2717 300.901 59.8439 300.901 58.0808C300.901 56.3177 299.472 54.8899 297.708 54.8899C295.944 54.8899 294.516 56.3177 294.516 58.0808C294.516 59.8439 295.944 61.2717 297.708 61.2717Z" fill="#C86E00"/>
<path d="M323.46 62.355L323.466 91.2191C323.466 91.4799 323.323 91.7096 323.112 91.8337L298.069 106.289C297.842 106.423 297.569 106.413 297.354 106.289L272.314 91.8368C272.075 91.6971 271.947 91.4426 271.96 91.185L271.953 62.3209C271.953 62.0601 272.096 61.8304 272.307 61.7063L297.351 47.251C297.581 47.1175 297.851 47.1268 298.065 47.251L323.106 61.7032C323.345 61.8429 323.472 62.0974 323.46 62.355ZM297.708 54.1791C298.786 54.1791 299.764 54.6167 300.469 55.3214C301.174 56.026 301.612 57.0037 301.612 58.0808C301.612 59.1579 301.174 60.1326 300.469 60.8403C299.764 61.5449 298.786 61.9825 297.708 61.9825C296.631 61.9825 295.655 61.5449 294.947 60.8403C294.242 60.1357 293.805 59.1579 293.805 58.0808C293.805 57.0037 294.242 56.0291 294.947 55.3214L294.991 55.281C295.693 54.6012 296.652 54.1791 297.708 54.1791ZM299.46 56.3333C299.013 55.8863 298.391 55.6069 297.708 55.6069C297.037 55.6069 296.432 55.8708 295.988 56.2991L295.957 56.3333C295.509 56.7802 295.23 57.401 295.23 58.0839C295.23 58.7668 295.509 59.3876 295.957 59.8346C296.404 60.2816 297.025 60.5609 297.708 60.5609C298.391 60.5609 299.013 60.2816 299.46 59.8346C299.907 59.3876 300.187 58.7668 300.187 58.0839C300.187 57.401 299.907 56.7802 299.46 56.3333ZM273.382 90.5114H322.041V83.8688H273.382V90.5114ZM320.09 91.9361H275.335L281.208 95.3257H314.221L320.09 91.9361ZM305.848 74.262L310.575 82.4441H320.025L305.848 74.262ZM308.929 82.4441L303.643 73.2904L287.783 82.4441H308.929ZM287.127 69.4259L292.221 78.2413L297.311 75.3049L287.127 69.4259ZM290.988 78.9521L284.926 68.4544L273.379 75.1156L273.382 82.4441H284.938L290.988 78.9521ZM273.379 73.4736L284.826 66.8682C285.04 66.7441 285.311 66.7348 285.54 66.8682L291.435 70.2702L309.28 59.9712C309.494 59.847 309.764 59.8377 309.994 59.9712L322.038 66.921V62.7306L297.708 48.6881L273.376 62.7306L273.379 73.4736ZM322.038 68.563L311.59 62.5319L322.041 80.6221L322.038 68.563ZM309.382 61.5542L292.857 71.0897L298.733 74.4792L303.547 71.7012C303.761 71.577 304.031 71.5677 304.261 71.7012L320.739 81.2118L309.382 61.5542ZM289.553 100.143H305.87L311.749 96.7505H283.677L289.553 100.143ZM303.401 101.568H292.025L297.711 104.849L303.401 101.568Z" fill="#222222"/>
<text fill="#222222" xml:space="preserve" style="white-space: pre" font-family="Noto Sans" font-size="4.49316" font-weight="bold" letter-spacing="0.2em"><tspan x="278.928" y="89.0549">FARAJALAND</tspan></text>
</g>
<text fill="#222222" xml:space="preserve" style="white-space: pre" font-family="Noto Sans" font-size="8" letter-spacing="0px"><tspan x="234.289" y="667.552">&#x2028;</tspan><tspan x="81" y="680.352">{{certificateDate}}</tspan></text>
<text fill="#222222" xml:space="preserve" style="white-space: pre" font-family="Noto Sans" font-size="8" font-weight="600" letter-spacing="0px"><tspan x="81" y="667.552">Date of certification / Date de d&#xe9;livrance</tspan></text>
<text fill="#222222" xml:space="preserve" style="white-space: pre" font-family="Noto Sans" font-size="8" letter-spacing="0px"><tspan x="240.727" y="701.312">&#x2028;</tspan><tspan x="81" y="714.112">{{location loggedInUser.officeId 'name'}}</tspan><tspan x="81" y="726.912">{{location loggedInUser.districtId 'name'}}, {{location loggedInUser.stateId 'name'}}, Farajaland</tspan></text>
<text fill="#222222" xml:space="preserve" style="white-space: pre" font-family="Noto Sans" font-size="8" font-weight="600" letter-spacing="0px"><tspan x="81" y="701.312">Place of certification / Lieu de certification</tspan></text>
<path d="M321.76 725.739L512.079 726.637" stroke="#CCCCCC" stroke-width="0.75879" stroke-dasharray="3.04 1.52"/>
<text fill="#222222" xml:space="preserve" style="white-space: pre" font-family="Noto Sans" font-size="8" font-weight="600" letter-spacing="0px"><tspan x="355.798" y="739.065">Registrar / L&#39;Officier de l&#39;&#xc9;tat Civil</tspan></text>
<text fill="#222222" xml:space="preserve" style="white-space: pre" font-family="Noto Sans" font-size="8" letter-spacing="0px"><tspan x="397.357" y="751.676">{{registrar.name}}</tspan></text>
<text fill="#222222" xml:space="preserve" style="white-space: pre" font-family="Noto Sans" font-size="8" letter-spacing="0px"><tspan x="81.3999" y="619.874">I certify that this certificate is a true copy of the civil registry and is issued by the mandated authority in pursuance </tspan><tspan x="81.3999" y="632.874">of civil registration law / Je certifie que le pr&#xe9;sent certificat est une copie conforme du registre d&#39;&#xe9;tat civil et qu&#39;il </tspan><tspan x="81.3999" y="645.874">est d&#xe9;livr&#xe9; par l&#39;autorit&#xe9; mandat&#xe9;e conform&#xe9;ment &#xe0; la loi sur l&#39;&#xe9;tat civil.</tspan></text>
<text fill="#6400C8" xml:space="preserve" style="white-space: pre" font-family="Noto Sans" font-size="9.7" font-weight="bold" letter-spacing="0px"><tspan x="403.421" y="122.484">&#x2028;</tspan></text>
<text fill="#222222" xml:space="preserve" style="white-space: pre" font-family="Noto Sans" font-size="7.76" font-weight="bold" letter-spacing="0px"><tspan x="186.255" y="122.484">REPUBLIC OF FARAJALAND / REPUBLIQUE DE FARAJALAND</tspan></text>
<text fill="#6400C8" xml:space="preserve" style="white-space: pre" font-family="Noto Sans" font-size="11.64" font-weight="bold" letter-spacing="0px"><tspan x="159.116" y="141.484">CERTIFICATE OF MARRIAGE / ACTE DE MARRIAGE</tspan></text>
<g clip-path="url(#clip3_1157_5110)">
<text fill="#222222" xml:space="preserve" style="white-space: pre" font-family="Noto Sans" font-size="9.7" font-weight="bold" letter-spacing="0px"><tspan x="88.6027" y="215.344">1.</tspan></text>
<text fill="#222222" xml:space="preserve" style="white-space: pre" font-family="Noto Sans" font-size="9.7" font-weight="bold" letter-spacing="0px"><tspan x="104.68" y="215.344">Groom&#x2019;s full name /&#x2028;</tspan><tspan x="104.68" y="230.344">Nom complet du mari&#xe9;</tspan></text>
<g clip-path="url(#clip4_1157_5110)">
<text fill="#222222" xml:space="preserve" style="white-space: pre" font-family="Noto Sans" font-size="9.7" letter-spacing="0px"><tspan x="289.95" y="222.844">{{groomFirstName}} {{groomFamilyName}}</tspan></text>
</g>
<line x1="81.3997" y1="239.415" x2="512.08" y2="239.415" stroke="#ECECEC" stroke-width="0.97"/>
<text fill="#222222" xml:space="preserve" style="white-space: pre" font-family="Noto Sans" font-size="9.7" font-weight="bold" letter-spacing="0px"><tspan x="88.6027" y="256.984">2.</tspan></text>
<text fill="#222222" xml:space="preserve" style="white-space: pre" font-family="Noto Sans" font-size="9.7" font-weight="bold" letter-spacing="0px"><tspan x="104.68" y="256.984">Bride&#x2019;s full name /&#x2028;</tspan><tspan x="104.68" y="271.984">Nom complet de la mari&#xe9;e</tspan></text>
<g clip-path="url(#clip5_1157_5110)">
<text fill="#222222" xml:space="preserve" style="white-space: pre" font-family="Noto Sans" font-size="9.7" letter-spacing="0px"><tspan x="289.95" y="264.484">{{brideFirstName}} {{brideFamilyName}}</tspan></text>
</g>
<line x1="81.3997" y1="281.055" x2="512.08" y2="281.055" stroke="#ECECEC" stroke-width="0.97"/>
<text fill="#222222" xml:space="preserve" style="white-space: pre" font-family="Noto Sans" font-size="9.7" font-weight="bold" letter-spacing="0px"><tspan x="88.6027" y="298.623">3.</tspan></text>
<text fill="#222222" xml:space="preserve" style="white-space: pre" font-family="Noto Sans" font-size="9.7" font-weight="bold" letter-spacing="0px"><tspan x="187.319" y="298.623"> /&#x2028;</tspan></text>
<text fill="#222222" xml:space="preserve" style="white-space: pre" font-family="Noto Sans" font-size="9.7" font-weight="bold" letter-spacing="0px"><tspan x="104.68" y="298.623">Date of marriage</tspan><tspan x="104.68" y="313.623">Date du mariage</tspan></text>
<g clip-path="url(#clip6_1157_5110)">
<text fill="#222222" xml:space="preserve" style="white-space: pre" font-family="Noto Sans" font-size="9.7" letter-spacing="0px"><tspan x="289.95" y="306.123">{{eventDate}}</tspan></text>
</g>
<line x1="81.3997" y1="322.695" x2="512.08" y2="322.695" stroke="#ECECEC" stroke-width="0.97"/>
<text fill="#222222" xml:space="preserve" style="white-space: pre" font-family="Noto Sans" font-size="9.7" font-weight="bold" letter-spacing="0px"><tspan x="88.6027" y="340.264">4.</tspan></text>
<text fill="#222222" xml:space="preserve" style="white-space: pre" font-family="Noto Sans" font-size="9.7" font-weight="bold" letter-spacing="0px"><tspan x="189.962" y="340.264"> /&#x2028;</tspan></text>
<text fill="#222222" xml:space="preserve" style="white-space: pre" font-family="Noto Sans" font-size="9.7" font-weight="bold" letter-spacing="0px"><tspan x="104.68" y="340.264">Place of marriage</tspan><tspan x="104.68" y="355.264">Lieu de mariage</tspan></text>
<g clip-path="url(#clip7_1157_5110)">
<text fill="#222222" xml:space="preserve" style="white-space: pre" font-family="Noto Sans" font-size="9.7" letter-spacing="0px">
    <tspan x="289.95" y="340.264">{{location districtPlaceofmarriageId 'name'}}{{internationalDistrictPlaceofmarriage}}, &#10;</tspan>
    <tspan x="289.95" y="355.264">{{location statePlaceofmarriageId 'name'}}{{internationalStatePlaceofmarriage}}, {{countryPlaceofmarriage}}</tspan>
</text>
</g>
<line x1="81.3997" y1="364.335" x2="512.08" y2="364.335" stroke="#ECECEC" stroke-width="0.97"/>
<line x1="81.3997" y1="364.335" x2="512.08" y2="364.335" stroke="#ECECEC" stroke-width="0.97"/>
<text fill="#222222" xml:space="preserve" style="white-space: pre" font-family="Noto Sans" font-size="9.7" font-weight="bold" letter-spacing="0px"><tspan x="88.6027" y="381.904">5.</tspan></text>
<text fill="#222222" xml:space="preserve" style="white-space: pre" font-family="Noto Sans" font-size="9.7" font-weight="bold" letter-spacing="0px"><tspan x="104.68" y="381.904">Witnesses / &#10;</tspan><tspan x="104.68" y="396.904">Les t&#xe9;moins</tspan></text>
<g clip-path="url(#clip8_1157_5110)">
<text fill="#222222" xml:space="preserve" style="white-space: pre" font-family="Noto Sans" font-size="9.7" letter-spacing="0px"><tspan x="289.95" y="382.424">{{witnessOneFirstName}} {{witnessOneFamilyName}}&#x2028;</tspan><tspan x="289.95" y="397.424">{{witnessTwoFirstName}} {{witnessTwoFamilyName}}</tspan></text>
</g>
<line x1="81.3997" y1="407.015" x2="512.08" y2="407.015" stroke="#ECECEC" stroke-width="0.97"/>
<line x1="81.3997" y1="407.015" x2="512.08" y2="407.015" stroke="#ECECEC" stroke-width="0.97"/>
<text fill="#222222" xml:space="preserve" style="white-space: pre" font-family="Noto Sans" font-size="9.7" font-weight="bold" letter-spacing="0px"><tspan x="88.6027" y="424.583">6.</tspan></text>
<text fill="#222222" xml:space="preserve" style="white-space: pre" font-family="Noto Sans" font-size="9.7" font-weight="bold" letter-spacing="0px"><tspan x="104.68" y="439.583">Lieu d&#39;enregistrement</tspan></text>
<text fill="#222222" xml:space="preserve" style="white-space: pre" font-family="Noto Sans" font-size="9.7" font-weight="bold" letter-spacing="0px"><tspan x="205.289" y="424.583">&#x2028;</tspan></text>
<text fill="#222222" xml:space="preserve" style="white-space: pre" font-family="Noto Sans" font-size="9.7" font-weight="bold" letter-spacing="0px"><tspan x="104.68" y="424.583">Place of registration /</tspan></text>
<g clip-path="url(#clip9_1157_5110)">
<text fill="#222222" xml:space="preserve" style="white-space: pre" font-family="Noto Sans" font-size="9.7" letter-spacing="0px"><tspan x="289.95" y="424.583">{{location registrar.officeId 'name'}}&#x2028;</tspan><tspan x="289.95" y="439.583">{{location registrar.districtId 'name'}}, {{location registrar.stateId 'name'}}, Farajaland</tspan></text>
</g>
<line x1="81.3997" y1="448.655" x2="512.08" y2="448.655" stroke="#ECECEC" stroke-width="0.97"/>
<text fill="#222222" xml:space="preserve" style="white-space: pre" font-family="Noto Sans" font-size="9.7" font-weight="bold" letter-spacing="0px"><tspan x="88.6027" y="466.224">7.</tspan></text>
<text fill="#222222" xml:space="preserve" style="white-space: pre" font-family="Noto Sans" font-size="9.7" font-weight="bold" letter-spacing="0px"><tspan x="202.646" y="466.224">&#x2028;</tspan></text>
<text fill="#222222" xml:space="preserve" style="white-space: pre" font-family="Noto Sans" font-size="9.7" font-weight="bold" letter-spacing="0px"><tspan x="104.68" y="466.224">Date of registration /</tspan></text>
<text fill="#222222" xml:space="preserve" style="white-space: pre" font-family="Noto Sans" font-size="9.7" font-weight="bold" letter-spacing="0px"><tspan x="104.68" y="481.224">Date d&#39;enregistrement</tspan></text>
<g clip-path="url(#clip10_1157_5110)">
<text fill="#222222" xml:space="preserve" style="white-space: pre" font-family="Noto Sans" font-size="9.7" letter-spacing="0px"><tspan x="289.95" y="473.724">{{registrationDate}}</tspan></text>
</g>
<line x1="81.3997" y1="490.295" x2="512.08" y2="490.295" stroke="#ECECEC" stroke-width="0.97"/>
<text fill="#222222" xml:space="preserve" style="white-space: pre" font-family="Noto Sans" font-size="9.7" font-weight="bold" letter-spacing="0px"><tspan x="88.6027" y="507.864">8.</tspan></text>
<text fill="#222222" xml:space="preserve" style="white-space: pre" font-family="Noto Sans" font-size="9.7" font-weight="bold" letter-spacing="0px"><tspan x="173.262" y="507.864">/&#x2028;</tspan></text>
<text fill="#222222" xml:space="preserve" style="white-space: pre" font-family="Noto Sans" font-size="9.7" font-weight="bold" letter-spacing="0px"><tspan x="104.68" y="507.864">Registered by </tspan><tspan x="104.68" y="522.864">Enregistr&#xe9; par</tspan></text>
<g clip-path="url(#clip11_1157_5110)">
<text fill="#222222" xml:space="preserve" style="white-space: pre" font-family="Noto Sans" font-size="9.7" letter-spacing="0px"><tspan x="289.95" y="515.364">{{registrar.name}}</tspan></text>
</g>
<line x1="81.3997" y1="531.935" x2="512.08" y2="531.935" stroke="#ECECEC" stroke-width="0.97"/>
<g clip-path="url(#clip12_1157_5110)">
<text fill="#222222" xml:space="preserve" style="white-space: pre" font-family="Noto Sans" font-size="9.7" font-weight="bold" letter-spacing="0px"><tspan x="88.6027" y="549.504">9.</tspan></text>
<text fill="#222222" xml:space="preserve" style="white-space: pre" font-family="Noto Sans" font-size="9.7" font-weight="bold" letter-spacing="0px"><tspan x="104.68" y="549.504">Signatures of bride and groom / &#10;</tspan><tspan x="104.68" y="564.504">Signatures des mari&#xe9;s</tspan></text>
<path d="M289.95 582.01L402.083 582.539" stroke="#CCCCCC" stroke-width="0.75879" stroke-dasharray="3.04 1.52"/>
<text fill="#222222" xml:space="preserve" style="white-space: pre" font-family="Noto Sans" font-size="7" font-weight="600" letter-spacing="0px"><tspan x="320.299" y="591.879">Groom / Mari&#xe9;</tspan></text>
<path d="M410.23 582.01L522.363 582.539" stroke="#CCCCCC" stroke-width="0.75879" stroke-dasharray="3.04 1.52"/>
<text fill="#222222" xml:space="preserve" style="white-space: pre" font-family="Noto Sans" font-size="7" font-weight="600" letter-spacing="0px"><tspan x="441.636" y="591.879">Bride / Mari&#xe9;e</tspan></text>
</g>
</g>
<path d="M62.9697 601.15H533.42" stroke="#6400C8" stroke-width="1.94" stroke-linecap="round"/>
<path d="M62.9697 153.4H532.45" stroke="#6400C8" stroke-width="1.94" stroke-linecap="round"/>
<text fill="#6400C8" xml:space="preserve" style="white-space: pre" font-family="Noto Sans" font-size="15.52" font-weight="bold" letter-spacing="3.88px"><tspan x="195.64" y="178.182">No. {{registrationNumber}}</tspan></text>
<path d="M62.9697 190.92H532.45" stroke="#6400C8" stroke-width="1.94" stroke-linecap="round"/>
<path d="M62.97 37H533.42" stroke="#DDDDDD" stroke-width="0.97" stroke-linecap="round"/>
<defs>
<pattern id="pattern3" patternContentUnits="objectBoundingBox" width="1" height="1">
<use xlink:href="#image3_1143_4289" transform="matrix(0.00117925 0 0 0.00300172 0 -0.215909)"/>
</pattern>
<pattern id="pattern4" patternContentUnits="objectBoundingBox" width="1" height="1">
<use xlink:href="#image4_1143_4289" transform="matrix(0.00062461 0 0 0.00158992 0 -0.0278519)"/>
</pattern>
<clipPath id="clip0_1157_5110">
<path d="M62 761.59H533.42V805.24H62V761.59Z" fill="white"/>
</clipPath>
<clipPath id="clip1_1157_5110">
<rect width="469.48" height="62.08" fill="white" transform="translate(62.97 45.73)"/>
</clipPath>
<clipPath id="clip2_1157_5110">
<rect width="190.321" height="66" fill="white" transform="translate(321.759 656.829)"/>
</clipPath>
<clipPath id="clip3_1157_5110">
<rect x="61.9998" y="190.26" width="469.48" height="410.31" rx="1.94" fill="white"/>
</clipPath>
<clipPath id="clip4_1157_5110">
<rect width="222.13" height="30" fill="white" transform="translate(289.95 204.08)"/>
</clipPath>
<clipPath id="clip5_1157_5110">
<rect width="222.13" height="30" fill="white" transform="translate(289.95 245.72)"/>
</clipPath>
<clipPath id="clip6_1157_5110">
<rect width="222.13" height="30" fill="white" transform="translate(289.95 287.36)"/>
</clipPath>
<clipPath id="clip7_1157_5110">
<rect width="222.13" height="30" fill="white" transform="translate(289.95 329)"/>
</clipPath>
<clipPath id="clip8_1157_5110">
<rect width="222.13" height="31.04" fill="white" transform="translate(289.95 370.64)"/>
</clipPath>
<clipPath id="clip9_1157_5110">
<rect width="222.13" height="30" fill="white" transform="translate(289.95 413.32)"/>
</clipPath>
<clipPath id="clip10_1157_5110">
<rect width="222.13" height="30" fill="white" transform="translate(289.95 454.96)"/>
</clipPath>
<clipPath id="clip11_1157_5110">
<rect width="222.13" height="30" fill="white" transform="translate(289.95 496.6)"/>
</clipPath>
<clipPath id="clip12_1157_5110">
<rect width="450.08" height="66.08" fill="white" transform="translate(81.3997 532.42)"/>
</clipPath>
<image id="image0_1143_4289" width="338" height="352" xlink:href="{{qrCode}}"/>
{{#ifCond printInAdvance '!==' true}}<image id="image1_1143_4289" width="1222" height="446" xlink:href="{{registrar.signature}}"/>{{/ifCond}}
<image id="image3_1143_4289" width="848" height="477" xlink:href="{{groomSignature}}"/>
<image id="image4_1143_4289" width="1601" height="664" xlink:href="{{brideSignature}}"/>
</defs>
</svg>
