<svg width="595" height="842" viewBox="0 0 595 842" fill="none" xmlns="http://www.w3.org/2000/svg"
    xmlns:xlink="http://www.w3.org/1999/xlink">
    <rect width="595" height="842" fill="white" />
    <text fill="black" xml:space="preserve" style="white-space: pre" font-family="Plus Jakarta Sans" font-size="10"
        letter-spacing="0em">
        <tspan x="24" y="104.58">Faritra :</tspan>
    </text>
    <text fill="black" xml:space="preserve" style="white-space: pre" font-family="Plus Jakarta Sans" font-size="10"
        font-weight="bold" letter-spacing="0em">
        <tspan x="88" y="104.58">{{location registrar.stateId "name"}}</tspan>
    </text>
    <text fill="black" xml:space="preserve" style="white-space: pre" font-family="Plus Jakarta Sans" font-size="11"
        letter-spacing="0em">
        <tspan x="24" y="120.488">Distrika :</tspan>
    </text>
    <text fill="black" xml:space="preserve" style="white-space: pre" font-family="Plus Jakarta Sans" font-size="11"
        font-weight="bold" letter-spacing="0em">
        <tspan x="88" y="120.488">{{location registrar.districtId "name"}}</tspan>
    </text>
    <text fill="black" xml:space="preserve" style="white-space: pre" font-family="Plus Jakarta Sans" font-size="11"
        letter-spacing="0em">
        <tspan x="24" y="136.488">Kaominina :</tspan>
    </text>
    <text fill="black" xml:space="preserve" style="white-space: pre" font-family="Plus Jakarta Sans" font-size="11"
        font-weight="bold" letter-spacing="0em">
        <tspan x="88" y="136.488">{{location registrar.officeId "name"}}</tspan>
    </text>
    <text fill="black" xml:space="preserve" style="white-space: pre" font-family="Plus Jakarta Sans" font-size="10"
        letter-spacing="0em">
        <tspan x="24" y="177.58">Soratra n&#xb0; :</tspan>
    </text>
    <text fill="black" xml:space="preserve" style="white-space: pre" font-family="Plus Jakarta Sans" font-size="10"
        font-weight="bold" letter-spacing="0em">
        <tspan x="86" y="177.58">{{registrationNumber}}</tspan>
    </text>
    <text fill="black" xml:space="preserve" style="white-space: pre" font-family="Plus Jakarta Sans" font-size="10"
        letter-spacing="0em">
        <tspan x="24" y="192.58">Natao ny :</tspan>
    </text>
    <text fill="black" xml:space="preserve" style="white-space: pre" font-family="Plus Jakarta Sans" font-size="10"
        font-weight="bold" letter-spacing="0em">
        <tspan x="86" y="192.58">{{translateDateToMDGFormat registrar.date}}</tspan>
    </text>
    <text fill="black" xml:space="default" font-family="Plus Jakarta Sans" font-size="14" font-weight="bold"
        letter-spacing="0em">
        <tspan x="24" y="233.712">{{#ifCond birthFatherFatherHasFormallyRecognisedChild '===' true }}
            FAHATERAHANA &#38; FANJANAHANA
            {{ else }}
            FAHATERAHANA
            {{/ifCond}}</tspan>
    </text>
    <text fill="black" xml:space="preserve" style="white-space: pre" font-family="Plus Jakarta Sans" font-size="10"
        letter-spacing="0em">
        <tspan x="24" y="271.58">{{childFamilyName}}</tspan>
    </text>
    <text fill="black" xml:space="preserve" style="white-space: pre" font-family="Plus Jakarta Sans" font-size="10"
        letter-spacing="0em">
        <tspan x="24" y="286.58">{{childFirstName}}</tspan>
    </text>
    <text fill="black" xml:space="preserve" style="white-space: pre" font-family="Plus Jakarta Sans" font-size="10"
        letter-spacing="0em">
        <tspan x="24" y="301.58">NUI : {{#if childNIDManual}}{{childNIDManual}}{{else}}{{childNID}}{{/if}}</tspan>
    </text>
    <text fill="black" xml:space="preserve" style="white-space: pre" font-family="Plus Jakarta Sans" font-size="10"
        letter-spacing="0em">
        <tspan x="24" y="316.58">Teraka ny : {{translateDateToMDGFormat eventDate}}</tspan>
    </text>
    <text fill="black" xml:space="default" font-family="Plus Jakarta Sans" font-size="10" font-weight="bold"
        letter-spacing="0em">
        <tspan x="24" y="353.58">
            {{#ifCond (isFirstCertificate) '===' true}}
            KOPIA VOALOHANY
            {{else}}
            FANAMARIHANA AN-TSISINY&#10;
            {{/ifCond}}
        </tspan>
    </text>
    <text fill="black" xml:space="default" font-family="Kapakana" font-size="36" letter-spacing="0em">
        <tspan x="217.896" y="122.48">Kopian&#x2019;i Sora-Piankohonana</tspan>
    </text>
    <text fill="black" xml:space="preserve" style="white-space: pre" font-family="Plus Jakarta Sans" font-size="11"
        letter-spacing="0em">
        <tspan x="187" y="178.488">Nalaina tamin&#x2019;ny bokim-piankohonan&#x2019;ny Kaominina Toamasina, Foibe
        </tspan>
        <tspan x="187" y="192.488">misahana ny fiankohonana, taona efatra amby roapolo sy roa arivo, izao </tspan>
        <tspan x="187" y="206.488">soratra manaraka izao : --</tspan>
    </text>
    <text fill="black" xml:space="preserve" style="white-space: pre" font-family="Plus Jakarta Sans" font-size="11"
        letter-spacing="0em">
        <tspan x="187" y="232.488">---Tamin&#x2019;ny </tspan>
        <tspan x="252.125" y="232.488">efatra </tspan>
        <tspan x="286.893" y="232.488">Septambra </tspan>
        <tspan x="349.343" y="232.488">efatra </tspan>
        <tspan x="384.11" y="232.488">amby </tspan>
        <tspan x="417.073" y="232.488">roapolo </tspan>
        <tspan x="462.11" y="232.488">sy </tspan>
        <tspan x="477.048" y="232.488">roa </tspan>
        <tspan x="497.818" y="232.488">arivo </tspan>
        <tspan x="526.678" y="232.488">tamin&#x2019;ny </tspan>
        <tspan x="187" y="246.488">sivy </tspan>
        <tspan x="210.58" y="246.488">ora </tspan>
        <tspan x="231.689" y="246.488">sy </tspan>
        <tspan x="246.966" y="246.488">efatra </tspan>
        <tspan x="282.072" y="246.488">minitra </tspan>
        <tspan x="321.561" y="246.488">alina, </tspan>
        <tspan x="352.338" y="246.488">no </tspan>
        <tspan x="369.742" y="246.488">teraka </tspan>
        <tspan x="406.782" y="246.488">tao </tspan>
        <tspan x="428.331" y="246.488">amin&#x2019;ny </tspan>
        <tspan x="472.386" y="246.488">CHU </tspan>
        <tspan x="500.671" y="246.488">Analakininina, </tspan>
        <tspan x="187" y="260.488">fokontany </tspan>
        <tspan x="247.05" y="260.488">Analakininina, </tspan>
        <tspan x="324.256" y="260.488">kaominina </tspan>
        <tspan x="384.585" y="260.488">Toamasina, </tspan>
        <tspan x="449.781" y="260.488">distrika </tspan>
        <tspan x="494.921" y="260.488">Toamasina </tspan>
        <tspan x="557.152" y="260.488">I </tspan>
        <tspan x="571" y="260.488"> </tspan>
        <tspan x="187" y="274.488">RANAIVO </tspan>
        <tspan x="238.351" y="274.488">Mampionona, </tspan>
        <tspan x="312.389" y="274.488">zazalahy, </tspan>
        <tspan x="360.71" y="274.488">zanak&#x2019;i </tspan>
        <tspan x="398.472" y="274.488">RANAIVO </tspan>
        <tspan x="449.822" y="274.488">Berbard </tspan>
        <tspan x="495.039" y="274.488">Joseph, </tspan>
        <tspan x="537.85" y="274.488">teraka </tspan>
        <tspan x="187" y="288.488">tamin&#x2019;ny </tspan>
        <tspan x="235.759" y="288.488">efatra </tspan>
        <tspan x="271.412" y="288.488">amby </tspan>
        <tspan x="305.26" y="288.488">roapolo </tspan>
        <tspan x="351.183" y="288.488">Aprily </tspan>
        <tspan x="384.774" y="288.488">iraika </tspan>
        <tspan x="416.571" y="288.488">amby </tspan>
        <tspan x="450.419" y="288.488">fitopolo </tspan>
        <tspan x="496.782" y="288.488">sy </tspan>
        <tspan x="512.606" y="288.488">sivinjato </tspan>
        <tspan x="559.613" y="288.488">sy </tspan>
        <tspan x="187" y="302.488">arivo </tspan>
        <tspan x="218.022" y="302.488">tao </tspan>
        <tspan x="241.395" y="302.488">amin&#x2019;ny </tspan>
        <tspan x="287.273" y="302.488">CSB2 </tspan>
        <tspan x="322.914" y="302.488">Ranomena, </tspan>
        <tspan x="387.806" y="302.488">kaominina </tspan>
        <tspan x="446.972" y="302.488">Toamasina </tspan>
        <tspan x="508.04" y="302.488">Suburbaine, </tspan>
        <tspan x="187" y="316.488">monina </tspan>
        <tspan x="228.712" y="316.488">ao </tspan>
        <tspan x="245.308" y="316.488">amin&#x2019;ny </tspan>
        <tspan x="288.567" y="316.488">fokontany </tspan>
        <tspan x="344.834" y="316.488">Andranobolaha, </tspan>
        <tspan x="431.191" y="316.488">kaominina </tspan>
        <tspan x="487.737" y="316.488">Andranobolaha, </tspan>
        <tspan x="187" y="330.488">distrikta </tspan>
        <tspan x="231.403" y="330.488">Brickaville, </tspan>
        <tspan x="289.009" y="330.488">mpamily </tspan>
        <tspan x="335.529" y="330.488">fiara, </tspan>
        <tspan x="363.185" y="330.488">sy </tspan>
        <tspan x="376.554" y="330.488">RASOAVOLOLONA </tspan>
        <tspan x="478.074" y="330.488">Marthine </tspan>
        <tspan x="525.421" y="330.488">Baovola, </tspan>
        <tspan x="187" y="344.488">teraka </tspan>
        <tspan x="223.587" y="344.488">tamin&#x2019;ny </tspan>
        <tspan x="271.346" y="344.488">sivy </tspan>
        <tspan x="294.472" y="344.488">Janoary </tspan>
        <tspan x="337.838" y="344.488">dimy </tspan>
        <tspan x="366.905" y="344.488">amby </tspan>
        <tspan x="399.753" y="344.488">valopolo </tspan>
        <tspan x="448.941" y="344.488">sy </tspan>
        <tspan x="463.764" y="344.488">sivinjato </tspan>
        <tspan x="509.772" y="344.488">sy </tspan>
        <tspan x="524.595" y="344.488">arivo </tspan>
        <tspan x="553.34" y="344.488">tao </tspan>
        <tspan x="187" y="358.488">amin&#x2019;ny </tspan>
        <tspan x="234.205" y="358.488">CHUGOB </tspan>
        <tspan x="291.959" y="358.488">Befetatanana, </tspan>
        <tspan x="373.11" y="358.488">Kaominina </tspan>
        <tspan x="434.667" y="358.488">Antananarivo </tspan>
        <tspan x="509.855" y="358.488">Renivohitra, </tspan>
        <tspan x="187" y="372.488">monina </tspan>
        <tspan x="228.712" y="372.488">ao </tspan>
        <tspan x="245.308" y="372.488">amin&#x2019;ny </tspan>
        <tspan x="288.567" y="372.488">fokontany </tspan>
        <tspan x="344.834" y="372.488">Andranobolaha, </tspan>
        <tspan x="431.191" y="372.488">kaominina </tspan>
        <tspan x="487.737" y="372.488">Andranobolaha, </tspan>
        <tspan x="187" y="386.488">distrikta </tspan>
        <tspan x="231.29" y="386.488">Brickaville, </tspan>
        <tspan x="288.782" y="386.488">mpikarakara </tspan>
        <tspan x="355.158" y="386.488">tokantrano. </tspan>
        <tspan x="417.85" y="386.488">---</tspan>
    </text>
    <text fill="black" xml:space="preserve" style="white-space: pre" font-family="Plus Jakarta Sans" font-size="11"
        font-weight="bold" letter-spacing="0em">
        <tspan x="566.843" y="260.488">:</tspan>
    </text>
    <text fill="black" xml:space="preserve" style="white-space: pre" font-family="Plus Jakarta Sans" font-size="11"
        letter-spacing="0em">
        <tspan x="187" y="412.488">---Nosoratana </tspan>
        <tspan x="266.731" y="412.488">androany </tspan>
        <tspan x="318.21" y="412.488">&#x201c;fito </tspan>
        <tspan x="342.715" y="412.488">Septambra </tspan>
        <tspan x="403.84" y="412.488">efatra </tspan>
        <tspan x="437.283" y="412.488">amby </tspan>
        <tspan x="468.921" y="412.488">roapolo </tspan>
        <tspan x="512.633" y="412.488">sy </tspan>
        <tspan x="526.246" y="412.488">roa </tspan>
        <tspan x="545.691" y="412.488">arivo </tspan>
        <tspan x="187" y="426.488">tamin&#x2019;ny </tspan>
        <tspan x="238.755" y="426.488">sivy </tspan>
        <tspan x="265.878" y="426.488">ora </tspan>
        <tspan x="290.53" y="426.488">sy </tspan>
        <tspan x="309.349" y="426.488">dimy </tspan>
        <tspan x="342.412" y="426.488">amby </tspan>
        <tspan x="379.257" y="426.488">efapolo </tspan>
        <tspan x="428.004" y="426.488">minitra </tspan>
        <tspan x="471.036" y="426.488">maraina, </tspan>
        <tspan x="522.844" y="426.488">araka </tspan>
        <tspan x="558.904" y="426.488">ny </tspan>
        <tspan x="187" y="440.488">fanambarana </tspan>
        <tspan x="258.457" y="440.488">nataon&#x2019;i </tspan>
        <tspan x="302.736" y="440.488">RAZANAKOLONA </tspan>
        <tspan x="395.258" y="440.488">Haja, </tspan>
        <tspan x="423.768" y="440.488">raibeny, </tspan>
        <tspan x="467.36" y="440.488">teraka </tspan>
        <tspan x="502.852" y="440.488">tamin&#x2019;ny </tspan>
        <tspan x="549.516" y="440.488">valo </tspan>
        <tspan x="187" y="454.488">Jolay </tspan>
        <tspan x="216.679" y="454.488">roapolo </tspan>
        <tspan x="261.72" y="454.488">sy </tspan>
        <tspan x="276.662" y="454.488">sivinjato </tspan>
        <tspan x="322.787" y="454.488">sy </tspan>
        <tspan x="337.729" y="454.488">arivo </tspan>
        <tspan x="366.592" y="454.488">tao </tspan>
        <tspan x="387.806" y="454.488">amin&#x2019;ny </tspan>
        <tspan x="431.526" y="454.488">CSB2 </tspan>
        <tspan x="465.008" y="454.488">Ankilivao, </tspan>
        <tspan x="517.547" y="454.488">kaominina </tspan>
        <tspan x="187" y="468.488">Toliara, </tspan>
        <tspan x="230.632" y="468.488">monina </tspan>
        <tspan x="276.519" y="468.488">ao </tspan>
        <tspan x="297.291" y="468.488">amin&#x2019;ny </tspan>
        <tspan x="344.725" y="468.488">Ankirihiry, </tspan>
        <tspan x="401.205" y="468.488">Kaominina </tspan>
        <tspan x="462.991" y="468.488">Toamasina, </tspan>
        <tspan x="528.579" y="468.488">distrikta </tspan>
        <tspan x="187" y="482.488">Toamasina </tspan>
        <tspan x="246.365" y="482.488">I, </tspan>
        <tspan x="256.155" y="482.488">mpamboly, </tspan>
        <tspan x="319.259" y="482.488">izay </tspan>
        <tspan x="342.917" y="482.488">miara-manao </tspan>
        <tspan x="417.311" y="482.488">sonia </tspan>
        <tspan x="449.24" y="482.488">aminay </tspan>
        <tspan x="490.548" y="482.488">RAKOTO </tspan>
        <tspan x="539.923" y="482.488">Vonjy, </tspan>
        <tspan x="187" y="496.488">Mpiandraikitra </tspan>
        <tspan x="264.45" y="496.488">ny </tspan>
        <tspan x="279.67" y="496.488">fiankohonana </tspan>
        <tspan x="353.639" y="496.488">eto </tspan>
        <tspan x="374.788" y="496.488">amin&#x2019;ny </tspan>
        <tspan x="418.078" y="496.488">Kaominina </tspan>
        <tspan x="475.718" y="496.488">Toamasina, </tspan>
        <tspan x="537.162" y="496.488">rehefa </tspan>
        <tspan x="187" y="510.488">novakiana </tspan>
        <tspan x="241.474" y="510.488">taminy </tspan>
        <tspan x="278.395" y="510.488">ity </tspan>
        <tspan x="292.939" y="510.488">soratra </tspan>
        <tspan x="331.794" y="510.488">ity.---</tspan>
    </text>
    <text fill="black" xml:space="preserve" style="white-space: pre" font-family="Plus Jakarta Sans" font-size="11"
        font-weight="600" letter-spacing="0em">
        <tspan x="320.289" y="536.488">MANARAKA NY SONIA</tspan>
    </text>
    <text fill="black" xml:space="preserve" style="white-space: pre" font-family="Plus Jakarta Sans" font-size="11"
        letter-spacing="0em">
        <tspan x="296.505" y="536.488">---- </tspan>
        <tspan x="437.711" y="536.488"> ----</tspan>
    </text>
    <text fill="black" xml:space="preserve" style="white-space: pre" font-family="Plus Jakarta Sans" font-size="11"
        letter-spacing="0em">
        <tspan x="187" y="562.488">---Kopia </tspan>
        <tspan x="244.604" y="562.488">manontolo </tspan>
        <tspan x="312.52" y="562.488">nadika </tspan>
        <tspan x="358.125" y="562.488">mitovy </tspan>
        <tspan x="404.191" y="562.488">amin&#x2019;ny </tspan>
        <tspan x="455.188" y="562.488">bokim-piankohonana, </tspan>
        <tspan x="187" y="576.488">androany </tspan>
        <tspan x="238.186" y="576.488">fito </tspan>
        <tspan x="257.78" y="576.488">Septambra </tspan>
        <tspan x="318.613" y="576.488">efatra </tspan>
        <tspan x="351.763" y="576.488">amby </tspan>
        <tspan x="383.109" y="576.488">roapolo </tspan>
        <tspan x="426.529" y="576.488">sy </tspan>
        <tspan x="439.849" y="576.488">roa </tspan>
        <tspan x="459.002" y="576.488">arivo. </tspan>
        <tspan x="489.392" y="576.488">Ary </tspan>
        <tspan x="508.115" y="576.488">nomena </tspan>
        <tspan x="552.921" y="576.488">an&#x2019;i </tspan>
        <tspan x="187" y="590.488">RANAIVO </tspan>
        <tspan x="237.8" y="590.488">Bernard </tspan>
        <tspan x="281.435" y="590.488">Joseph.---</tspan>
    </text>
    <text fill="black" xml:space="preserve" style="white-space: pre" font-family="Plus Jakarta Sans" font-size="12"
        font-weight="600" letter-spacing="0em">
        <tspan x="262.152" y="637.396">Ny Mpiandraikitra ny sora-piankohonana</tspan>
    </text>
    <image x="231" y="14" width="132" height="72" xlink:href="{{certificateLogo}}"
        preserveAspectRatio="xMaxYMid meet" />
</svg>