<svg width="595" height="842" viewBox="0 0 595 842" fill="none" xmlns="http://www.w3.org/2000/svg"
    xmlns:xlink="http://www.w3.org/1999/xlink">
    <g id="A4 - 1">
        <rect width="595" height="842" fill="white" />
        <g
            id="REPOBLIKAN&#226;&#128;&#153;I MADAGASIKARA&#226;&#128;&#168;Fitiavana - Tanindrazana - Fandrosoana Commune {{Commune}}">
            <text fill="black" xml:space="preserve" style="white-space: pre" font-family="Montserrat" font-size="8"
                font-weight="bold" letter-spacing="0em">
                <tspan x="291.379" y="49.585">&#x2028;</tspan>
                <tspan x="133" y="63.585">Fitiavana - Tanindrazana - Fandrosoana&#10;</tspan>
                <tspan x="133" y="77.585">Commune {{Commune}}</tspan>
            </text>
            <text fill="black" xml:space="preserve" style="white-space: pre" font-family="Montserrat" font-size="10"
                font-weight="bold" letter-spacing="0em">
                <tspan x="133" y="49.585">REPOBLIKAN&#x2019;I MADAGASIKARA</tspan>
            </text>
        </g>
        <g id="Kopian&#226;&#128;&#153;ny Sora-piankohonana">
            <path id="Vector"
                d="M476.286 138.072C476.11 138.088 475.91 138.048 475.686 137.952C475.462 137.856 475.262 137.68 475.086 137.424C474.926 137.168 474.846 136.808 474.846 136.344C474.846 135.96 474.918 135.496 475.062 134.952C474.87 135.256 474.622 135.632 474.318 136.08C474.014 136.512 473.686 136.896 473.334 137.232C473.03 137.52 472.742 137.728 472.47 137.856C472.198 137.984 471.95 138.048 471.726 138.048C471.31 138.048 470.974 137.864 470.718 137.496C470.462 137.112 470.334 136.616 470.334 136.008C470.334 135.368 470.494 134.64 470.814 133.824C471.134 133.008 471.654 132.16 472.374 131.28C472.838 130.72 473.398 130.272 474.054 129.936C474.726 129.584 475.382 129.408 476.022 129.408C476.39 129.408 476.742 129.472 477.078 129.6C477.414 129.712 477.71 129.904 477.966 130.176C478.078 130.288 478.134 130.416 478.134 130.56C478.134 130.656 478.094 130.736 478.014 130.8C477.934 130.864 477.83 130.88 477.702 130.848C477.526 130.288 477.15 130.008 476.574 130.008C476.302 130.008 475.99 130.096 475.638 130.272C475.094 130.56 474.526 131.032 473.934 131.688C473.358 132.344 472.854 133.024 472.422 133.728C472.358 133.824 472.254 134.008 472.11 134.28C471.982 134.552 471.854 134.856 471.726 135.192C471.598 135.528 471.51 135.856 471.462 136.176C471.446 136.272 471.438 136.344 471.438 136.392C471.438 136.424 471.438 136.48 471.438 136.56C471.438 137.088 471.638 137.352 472.038 137.352C472.518 137.352 473.062 137 473.67 136.296C474.086 135.784 474.462 135.248 474.798 134.688C475.134 134.128 475.478 133.528 475.83 132.888C476.07 132.456 476.294 132.096 476.502 131.808C476.71 131.52 477.006 131.376 477.39 131.376C477.566 131.376 477.742 131.4 477.918 131.448C478.094 131.496 478.278 131.504 478.47 131.472C478.342 131.6 478.166 131.84 477.942 132.192C477.734 132.544 477.51 132.944 477.27 133.392C477.03 133.84 476.814 134.296 476.622 134.76C476.43 135.224 476.294 135.624 476.214 135.96C476.198 136.056 476.174 136.192 476.142 136.368C476.126 136.544 476.118 136.672 476.118 136.752C476.118 137.2 476.246 137.424 476.502 137.424C476.758 137.424 477.03 137.272 477.318 136.968C477.622 136.664 477.918 136.288 478.206 135.84C478.494 135.392 478.758 134.944 478.998 134.496C479.238 134.032 479.43 133.656 479.574 133.368C479.638 133.208 479.734 133.128 479.862 133.128C479.942 133.128 479.982 133.184 479.982 133.296C479.982 133.344 479.958 133.432 479.91 133.56C479.718 133.96 479.486 134.416 479.214 134.928C478.942 135.424 478.646 135.912 478.326 136.392C478.006 136.856 477.67 137.248 477.318 137.568C476.982 137.872 476.638 138.04 476.286 138.072Z"
                fill="black" />
            <path id="Vector_2"
                d="M460.759 138.192C461.335 137.024 461.887 135.872 462.415 134.736C462.959 133.584 463.511 132.488 464.071 131.448C464.391 130.872 464.655 130.472 464.863 130.248C465.087 130.008 465.383 129.888 465.751 129.888C465.879 129.888 466.015 129.912 466.159 129.96C466.303 129.992 466.447 130.008 466.591 130.008C466.687 130.008 466.759 130 466.807 129.984C466.583 130.112 466.295 130.432 465.943 130.944C465.591 131.44 465.231 132.016 464.863 132.672C464.495 133.328 464.167 133.944 463.879 134.52C464.183 134.152 464.495 133.784 464.815 133.416C465.151 133.048 465.519 132.696 465.919 132.36C466.303 132.024 466.759 131.68 467.287 131.328C467.831 130.96 468.359 130.656 468.871 130.416C469.383 130.176 469.791 130.056 470.095 130.056C470.207 130.056 470.287 130.064 470.335 130.08C470.335 130.08 470.247 130.24 470.071 130.56C469.895 130.864 469.671 131.272 469.399 131.784C469.143 132.28 468.879 132.816 468.607 133.392C468.335 133.952 468.087 134.496 467.863 135.024C467.655 135.536 467.519 135.968 467.455 136.32C467.407 136.528 467.383 136.72 467.383 136.896C467.383 137.152 467.431 137.32 467.527 137.4C467.623 137.48 467.727 137.52 467.839 137.52C468.143 137.52 468.463 137.36 468.799 137.04C469.135 136.704 469.455 136.296 469.759 135.816C470.079 135.336 470.359 134.872 470.599 134.424C470.855 133.96 471.039 133.608 471.151 133.368C471.215 133.24 471.263 133.168 471.295 133.152C471.327 133.12 471.375 133.104 471.439 133.104C471.535 133.104 471.583 133.168 471.583 133.296C471.583 133.376 471.559 133.464 471.511 133.56C471.319 133.928 471.087 134.368 470.815 134.88C470.559 135.392 470.263 135.896 469.927 136.392C469.591 136.872 469.223 137.28 468.823 137.616C468.423 137.936 467.991 138.096 467.527 138.096C467.207 138.096 466.871 137.984 466.519 137.76C466.183 137.536 466.015 137.12 466.015 136.512C466.015 136.336 466.031 136.152 466.063 135.96C466.095 135.752 466.151 135.528 466.231 135.288C466.359 134.968 466.511 134.624 466.687 134.256C466.863 133.888 467.151 133.384 467.551 132.744C467.663 132.568 467.727 132.432 467.743 132.336C467.775 132.24 467.791 132.16 467.791 132.096C467.791 131.904 467.703 131.808 467.527 131.808C467.383 131.808 467.167 131.888 466.879 132.048C466.607 132.208 466.263 132.488 465.847 132.888C465.447 133.272 464.967 133.816 464.407 134.52C463.863 135.224 463.231 136.264 462.511 137.64C462.399 137.848 462.271 137.96 462.127 137.976C461.999 137.992 461.815 138.008 461.575 138.024C461.415 138.04 461.263 138.048 461.119 138.048C460.975 138.064 460.855 138.112 460.759 138.192Z"
                fill="black" />
            <path id="Vector_3"
                d="M459.786 138.072C459.61 138.088 459.41 138.048 459.186 137.952C458.962 137.856 458.762 137.68 458.586 137.424C458.426 137.168 458.346 136.808 458.346 136.344C458.346 135.96 458.418 135.496 458.562 134.952C458.37 135.256 458.122 135.632 457.818 136.08C457.514 136.512 457.186 136.896 456.834 137.232C456.53 137.52 456.242 137.728 455.97 137.856C455.698 137.984 455.45 138.048 455.226 138.048C454.81 138.048 454.474 137.864 454.218 137.496C453.962 137.112 453.834 136.616 453.834 136.008C453.834 135.368 453.994 134.64 454.314 133.824C454.634 133.008 455.154 132.16 455.874 131.28C456.338 130.72 456.898 130.272 457.554 129.936C458.226 129.584 458.882 129.408 459.522 129.408C459.89 129.408 460.242 129.472 460.578 129.6C460.914 129.712 461.21 129.904 461.466 130.176C461.578 130.288 461.634 130.416 461.634 130.56C461.634 130.656 461.594 130.736 461.514 130.8C461.434 130.864 461.33 130.88 461.202 130.848C461.026 130.288 460.65 130.008 460.074 130.008C459.802 130.008 459.49 130.096 459.138 130.272C458.594 130.56 458.026 131.032 457.434 131.688C456.858 132.344 456.354 133.024 455.922 133.728C455.858 133.824 455.754 134.008 455.61 134.28C455.482 134.552 455.354 134.856 455.226 135.192C455.098 135.528 455.01 135.856 454.962 136.176C454.946 136.272 454.938 136.344 454.938 136.392C454.938 136.424 454.938 136.48 454.938 136.56C454.938 137.088 455.138 137.352 455.538 137.352C456.018 137.352 456.562 137 457.17 136.296C457.586 135.784 457.962 135.248 458.298 134.688C458.634 134.128 458.978 133.528 459.33 132.888C459.57 132.456 459.794 132.096 460.002 131.808C460.21 131.52 460.506 131.376 460.89 131.376C461.066 131.376 461.242 131.4 461.418 131.448C461.594 131.496 461.778 131.504 461.97 131.472C461.842 131.6 461.666 131.84 461.442 132.192C461.234 132.544 461.01 132.944 460.77 133.392C460.53 133.84 460.314 134.296 460.122 134.76C459.93 135.224 459.794 135.624 459.714 135.96C459.698 136.056 459.674 136.192 459.642 136.368C459.626 136.544 459.618 136.672 459.618 136.752C459.618 137.2 459.746 137.424 460.002 137.424C460.258 137.424 460.53 137.272 460.818 136.968C461.122 136.664 461.418 136.288 461.706 135.84C461.994 135.392 462.258 134.944 462.498 134.496C462.738 134.032 462.93 133.656 463.074 133.368C463.138 133.208 463.234 133.128 463.362 133.128C463.442 133.128 463.482 133.184 463.482 133.296C463.482 133.344 463.458 133.432 463.41 133.56C463.218 133.96 462.986 134.416 462.714 134.928C462.442 135.424 462.146 135.912 461.826 136.392C461.506 136.856 461.17 137.248 460.818 137.568C460.482 137.872 460.138 138.04 459.786 138.072Z"
                fill="black" />
            <path id="Vector_4"
                d="M444.259 138.192C444.835 137.024 445.387 135.872 445.915 134.736C446.459 133.584 447.011 132.488 447.571 131.448C447.891 130.872 448.155 130.472 448.363 130.248C448.587 130.008 448.883 129.888 449.251 129.888C449.379 129.888 449.515 129.912 449.659 129.96C449.803 129.992 449.947 130.008 450.091 130.008C450.187 130.008 450.259 130 450.307 129.984C450.083 130.112 449.795 130.432 449.443 130.944C449.091 131.44 448.731 132.016 448.363 132.672C447.995 133.328 447.667 133.944 447.379 134.52C447.683 134.152 447.995 133.784 448.315 133.416C448.651 133.048 449.019 132.696 449.419 132.36C449.803 132.024 450.259 131.68 450.787 131.328C451.331 130.96 451.859 130.656 452.371 130.416C452.883 130.176 453.291 130.056 453.595 130.056C453.707 130.056 453.787 130.064 453.835 130.08C453.835 130.08 453.747 130.24 453.571 130.56C453.395 130.864 453.171 131.272 452.899 131.784C452.643 132.28 452.379 132.816 452.107 133.392C451.835 133.952 451.587 134.496 451.363 135.024C451.155 135.536 451.019 135.968 450.955 136.32C450.907 136.528 450.883 136.72 450.883 136.896C450.883 137.152 450.931 137.32 451.027 137.4C451.123 137.48 451.227 137.52 451.339 137.52C451.643 137.52 451.963 137.36 452.299 137.04C452.635 136.704 452.955 136.296 453.259 135.816C453.579 135.336 453.859 134.872 454.099 134.424C454.355 133.96 454.539 133.608 454.651 133.368C454.715 133.24 454.763 133.168 454.795 133.152C454.827 133.12 454.875 133.104 454.939 133.104C455.035 133.104 455.083 133.168 455.083 133.296C455.083 133.376 455.059 133.464 455.011 133.56C454.819 133.928 454.587 134.368 454.315 134.88C454.059 135.392 453.763 135.896 453.427 136.392C453.091 136.872 452.723 137.28 452.323 137.616C451.923 137.936 451.491 138.096 451.027 138.096C450.707 138.096 450.371 137.984 450.019 137.76C449.683 137.536 449.515 137.12 449.515 136.512C449.515 136.336 449.531 136.152 449.563 135.96C449.595 135.752 449.651 135.528 449.731 135.288C449.859 134.968 450.011 134.624 450.187 134.256C450.363 133.888 450.651 133.384 451.051 132.744C451.163 132.568 451.227 132.432 451.243 132.336C451.275 132.24 451.291 132.16 451.291 132.096C451.291 131.904 451.203 131.808 451.027 131.808C450.883 131.808 450.667 131.888 450.379 132.048C450.107 132.208 449.763 132.488 449.347 132.888C448.947 133.272 448.467 133.816 447.907 134.52C447.363 135.224 446.731 136.264 446.011 137.64C445.899 137.848 445.771 137.96 445.627 137.976C445.499 137.992 445.315 138.008 445.075 138.024C444.915 138.04 444.763 138.048 444.619 138.048C444.475 138.064 444.355 138.112 444.259 138.192Z"
                fill="black" />
            <path id="Vector_5"
                d="M439.652 138C439.044 138 438.596 137.8 438.308 137.4C438.02 136.984 437.876 136.48 437.876 135.888C437.876 135.168 438.044 134.416 438.38 133.632C438.7 132.896 439.108 132.224 439.604 131.616C440.1 131.008 440.636 130.52 441.212 130.152C441.788 129.768 442.348 129.576 442.892 129.576C443.5 129.576 443.948 129.776 444.236 130.176C444.524 130.576 444.668 131.08 444.668 131.688C444.668 132.424 444.5 133.176 444.164 133.944C443.972 134.376 443.7 134.856 443.348 135.384C442.996 135.896 442.596 136.368 442.148 136.8C442.244 136.976 442.38 137.128 442.556 137.256C442.732 137.368 442.972 137.424 443.276 137.424C443.66 137.424 444.02 137.264 444.356 136.944C444.708 136.624 445.028 136.24 445.316 135.792C445.604 135.328 445.86 134.864 446.084 134.4C446.308 133.936 446.492 133.56 446.636 133.272C446.684 133.176 446.764 133.128 446.876 133.128C446.94 133.128 446.988 133.16 447.02 133.224C447.052 133.272 447.044 133.352 446.996 133.464C446.9 133.704 446.74 134.064 446.516 134.544C446.292 135.008 446.02 135.496 445.7 136.008C445.38 136.504 445.012 136.928 444.596 137.28C444.18 137.632 443.716 137.808 443.204 137.808C442.852 137.808 442.548 137.752 442.292 137.64C442.036 137.512 441.828 137.36 441.668 137.184C441.332 137.44 440.996 137.64 440.66 137.784C440.324 137.928 439.988 138 439.652 138ZM440.012 137.472C440.444 137.472 440.908 137.264 441.404 136.848C441.276 136.656 441.18 136.456 441.116 136.248C441.052 136.04 441.02 135.848 441.02 135.672C441.02 135.384 441.084 135.136 441.212 134.928C441.356 134.72 441.572 134.616 441.86 134.616C442.068 134.616 442.236 134.696 442.364 134.856C442.508 135 442.58 135.168 442.58 135.36C442.58 135.408 442.572 135.456 442.556 135.504C442.556 135.536 442.548 135.576 442.532 135.624C442.804 135.256 443.06 134.824 443.3 134.328C443.828 133.192 444.092 132.256 444.092 131.52C444.092 131.152 444.02 130.864 443.876 130.656C443.732 130.448 443.516 130.344 443.228 130.344C442.892 130.344 442.524 130.488 442.124 130.776C441.74 131.064 441.364 131.448 440.996 131.928C440.644 132.408 440.332 132.944 440.06 133.536C439.804 134.08 439.596 134.608 439.436 135.12C439.292 135.616 439.22 136.048 439.22 136.416C439.22 136.736 439.284 136.992 439.412 137.184C439.54 137.376 439.74 137.472 440.012 137.472Z"
                fill="black" />
            <path id="Vector_6"
                d="M428.181 138.192C428.853 136.816 429.549 135.376 430.269 133.872C431.005 132.352 431.757 130.824 432.525 129.288C433.293 127.752 434.053 126.288 434.805 124.896C435.077 124.416 435.325 124.04 435.549 123.768C435.789 123.496 436.101 123.36 436.485 123.36C436.629 123.36 436.797 123.384 436.989 123.432C437.181 123.48 437.365 123.488 437.541 123.456C437.333 123.68 437.045 124.072 436.677 124.632C436.325 125.192 435.925 125.864 435.477 126.648C435.045 127.432 434.581 128.28 434.085 129.192C433.605 130.088 433.125 131 432.645 131.928C432.181 132.84 431.749 133.696 431.349 134.496C431.669 134.08 431.997 133.688 432.333 133.32C432.669 132.952 432.997 132.632 433.317 132.36C433.669 132.04 434.109 131.704 434.637 131.352C435.181 131 435.717 130.696 436.245 130.44C436.789 130.184 437.221 130.056 437.541 130.056C437.653 130.056 437.733 130.064 437.781 130.08C437.781 130.08 437.693 130.24 437.517 130.56C437.341 130.88 437.117 131.288 436.845 131.784C436.589 132.28 436.317 132.816 436.029 133.392C435.757 133.968 435.517 134.52 435.309 135.048C435.101 135.56 434.965 135.984 434.901 136.32C434.853 136.576 434.829 136.792 434.829 136.968C434.829 137.224 434.877 137.4 434.973 137.496C435.069 137.576 435.173 137.616 435.285 137.616C435.557 137.616 435.853 137.448 436.173 137.112C436.493 136.776 436.805 136.368 437.109 135.888C437.413 135.392 437.685 134.912 437.925 134.448C438.181 133.984 438.373 133.624 438.501 133.368C438.597 133.192 438.693 133.104 438.789 133.104C438.885 133.104 438.933 133.168 438.933 133.296C438.933 133.36 438.909 133.456 438.861 133.584C438.653 134 438.413 134.472 438.141 135C437.885 135.512 437.589 136.008 437.253 136.488C436.933 136.952 436.573 137.336 436.173 137.64C435.789 137.944 435.373 138.096 434.925 138.096C434.605 138.096 434.277 137.984 433.941 137.76C433.605 137.536 433.437 137.128 433.437 136.536C433.437 136.36 433.453 136.176 433.485 135.984C433.517 135.776 433.573 135.544 433.653 135.288C433.749 134.968 433.909 134.616 434.133 134.232C434.357 133.832 434.645 133.336 434.997 132.744C435.157 132.472 435.237 132.256 435.237 132.096C435.237 131.904 435.141 131.808 434.949 131.808C434.789 131.808 434.573 131.888 434.301 132.048C434.029 132.208 433.685 132.488 433.269 132.888C432.869 133.272 432.373 133.832 431.781 134.568C431.189 135.304 430.557 136.336 429.885 137.664C429.773 137.872 429.645 137.984 429.501 138C429.373 138 429.197 138.008 428.973 138.024C428.829 138.04 428.685 138.048 428.541 138.048C428.397 138.064 428.277 138.112 428.181 138.192Z"
                fill="black" />
            <path id="Vector_7"
                d="M423.598 138C422.99 138 422.542 137.8 422.254 137.4C421.966 136.984 421.822 136.48 421.822 135.888C421.822 135.168 421.99 134.416 422.326 133.632C422.646 132.896 423.054 132.224 423.55 131.616C424.046 131.008 424.582 130.52 425.158 130.152C425.734 129.768 426.294 129.576 426.838 129.576C427.446 129.576 427.894 129.776 428.182 130.176C428.47 130.576 428.614 131.08 428.614 131.688C428.614 132.424 428.446 133.176 428.11 133.944C427.918 134.376 427.646 134.856 427.294 135.384C426.942 135.896 426.542 136.368 426.094 136.8C426.19 136.976 426.326 137.128 426.502 137.256C426.678 137.368 426.918 137.424 427.222 137.424C427.606 137.424 427.966 137.264 428.302 136.944C428.654 136.624 428.974 136.24 429.262 135.792C429.55 135.328 429.806 134.864 430.03 134.4C430.254 133.936 430.438 133.56 430.582 133.272C430.63 133.176 430.71 133.128 430.822 133.128C430.886 133.128 430.934 133.16 430.966 133.224C430.998 133.272 430.99 133.352 430.942 133.464C430.846 133.704 430.686 134.064 430.462 134.544C430.238 135.008 429.966 135.496 429.646 136.008C429.326 136.504 428.958 136.928 428.542 137.28C428.126 137.632 427.662 137.808 427.15 137.808C426.798 137.808 426.494 137.752 426.238 137.64C425.982 137.512 425.774 137.36 425.614 137.184C425.278 137.44 424.942 137.64 424.606 137.784C424.27 137.928 423.934 138 423.598 138ZM423.958 137.472C424.39 137.472 424.854 137.264 425.35 136.848C425.222 136.656 425.126 136.456 425.062 136.248C424.998 136.04 424.966 135.848 424.966 135.672C424.966 135.384 425.03 135.136 425.158 134.928C425.302 134.72 425.518 134.616 425.806 134.616C426.014 134.616 426.182 134.696 426.31 134.856C426.454 135 426.526 135.168 426.526 135.36C426.526 135.408 426.518 135.456 426.502 135.504C426.502 135.536 426.494 135.576 426.478 135.624C426.75 135.256 427.006 134.824 427.246 134.328C427.774 133.192 428.038 132.256 428.038 131.52C428.038 131.152 427.966 130.864 427.822 130.656C427.678 130.448 427.462 130.344 427.174 130.344C426.838 130.344 426.47 130.488 426.07 130.776C425.686 131.064 425.31 131.448 424.942 131.928C424.59 132.408 424.278 132.944 424.006 133.536C423.75 134.08 423.542 134.608 423.382 135.12C423.238 135.616 423.166 136.048 423.166 136.416C423.166 136.736 423.23 136.992 423.358 137.184C423.486 137.376 423.686 137.472 423.958 137.472Z"
                fill="black" />
            <path id="Vector_8"
                d="M418.047 138.168C417.615 138.12 417.223 137.92 416.871 137.568C416.535 137.2 416.303 136.712 416.175 136.104C416.159 135.992 416.143 135.896 416.127 135.816C416.127 135.72 416.127 135.616 416.127 135.504C416.127 134.864 416.271 134.352 416.559 133.968C416.847 133.568 417.111 133.36 417.351 133.344C417.607 133.36 417.919 133.304 418.287 133.176C418.655 133.032 418.975 132.84 419.247 132.6C419.711 132.232 419.943 131.856 419.943 131.472C419.943 131.072 419.711 130.872 419.247 130.872C418.991 130.872 418.663 130.96 418.263 131.136C417.879 131.312 417.431 131.616 416.919 132.048C416.279 132.592 415.615 133.32 414.927 134.232C414.831 134.44 414.719 134.752 414.591 135.168C414.463 135.568 414.351 135.984 414.255 136.416C414.175 136.848 414.135 137.216 414.135 137.52C414.135 137.76 414.175 137.92 414.255 138H412.743C412.567 138 412.479 137.928 412.479 137.784C412.479 137.736 412.487 137.696 412.503 137.664C412.519 137.632 412.535 137.568 412.551 137.472C412.775 136.64 413.071 135.856 413.439 135.12C413.807 134.384 414.175 133.608 414.543 132.792C413.983 133.832 413.471 134.752 413.007 135.552C412.559 136.336 412.215 136.84 411.975 137.064C411.943 137.096 411.903 137.112 411.855 137.112C411.791 137.112 411.751 137.072 411.735 136.992C411.703 136.912 411.719 136.832 411.783 136.752C412.119 136.304 412.503 135.688 412.935 134.904C413.383 134.12 413.855 133.248 414.351 132.288C414.847 131.312 415.351 130.328 415.863 129.336C416.375 128.344 416.871 127.408 417.351 126.528C417.847 125.648 418.295 124.904 418.695 124.296C418.983 123.864 419.255 123.56 419.511 123.384C419.767 123.192 420.031 123.096 420.303 123.096H420.423C420.567 123.096 420.727 123.12 420.903 123.168C421.095 123.216 421.271 123.224 421.431 123.192C421.127 123.432 420.759 123.824 420.327 124.368C419.895 124.912 419.439 125.56 418.959 126.312C418.479 127.064 417.991 127.864 417.495 128.712C417.015 129.56 416.559 130.4 416.127 131.232C415.967 131.552 415.815 131.888 415.671 132.24C415.527 132.592 415.391 132.944 415.263 133.296C415.599 132.88 415.983 132.448 416.415 132C416.847 131.552 417.295 131.144 417.759 130.776C418.239 130.392 418.711 130.112 419.175 129.936C419.703 129.744 420.143 129.648 420.495 129.648C420.863 129.648 421.127 129.736 421.287 129.912C421.463 130.088 421.551 130.312 421.551 130.584C421.551 130.888 421.431 131.256 421.191 131.688C420.951 132.104 420.623 132.464 420.207 132.768C419.855 133.008 419.487 133.216 419.103 133.392C418.719 133.568 418.263 133.68 417.735 133.728C417.639 133.952 417.567 134.184 417.519 134.424C417.487 134.648 417.471 134.872 417.471 135.096C417.471 135.72 417.615 136.272 417.903 136.752C418.191 137.216 418.567 137.448 419.031 137.448C419.255 137.448 419.495 137.384 419.751 137.256C420.023 137.128 420.303 136.912 420.591 136.608C420.911 136.288 421.231 135.832 421.551 135.24C421.887 134.648 422.223 134 422.559 133.296C422.623 133.168 422.695 133.104 422.775 133.104C422.871 133.104 422.919 133.168 422.919 133.296C422.919 133.36 422.895 133.44 422.847 133.536C422.383 134.608 421.935 135.464 421.503 136.104C421.087 136.728 420.679 137.2 420.279 137.52C419.895 137.824 419.519 138.016 419.151 138.096C418.783 138.176 418.415 138.2 418.047 138.168Z"
                fill="black" />
            <path id="Vector_9"
                d="M403.361 138.192C403.937 137.024 404.489 135.872 405.017 134.736C405.561 133.584 406.113 132.488 406.673 131.448C406.993 130.872 407.257 130.472 407.465 130.248C407.689 130.008 407.985 129.888 408.353 129.888C408.481 129.888 408.617 129.912 408.761 129.96C408.905 129.992 409.049 130.008 409.193 130.008C409.289 130.008 409.361 130 409.409 129.984C409.185 130.112 408.897 130.432 408.545 130.944C408.193 131.44 407.833 132.016 407.465 132.672C407.097 133.328 406.769 133.944 406.481 134.52C406.785 134.152 407.097 133.784 407.417 133.416C407.753 133.048 408.121 132.696 408.521 132.36C408.905 132.024 409.361 131.68 409.889 131.328C410.433 130.96 410.961 130.656 411.473 130.416C411.985 130.176 412.393 130.056 412.697 130.056C412.809 130.056 412.889 130.064 412.937 130.08C412.937 130.08 412.849 130.24 412.673 130.56C412.497 130.864 412.273 131.272 412.001 131.784C411.745 132.28 411.481 132.816 411.209 133.392C410.937 133.952 410.689 134.496 410.465 135.024C410.257 135.536 410.121 135.968 410.057 136.32C410.009 136.528 409.985 136.72 409.985 136.896C409.985 137.152 410.033 137.32 410.129 137.4C410.225 137.48 410.329 137.52 410.441 137.52C410.745 137.52 411.065 137.36 411.401 137.04C411.737 136.704 412.057 136.296 412.361 135.816C412.681 135.336 412.961 134.872 413.201 134.424C413.457 133.96 413.641 133.608 413.753 133.368C413.817 133.24 413.865 133.168 413.897 133.152C413.929 133.12 413.977 133.104 414.041 133.104C414.137 133.104 414.185 133.168 414.185 133.296C414.185 133.376 414.161 133.464 414.113 133.56C413.921 133.928 413.689 134.368 413.417 134.88C413.161 135.392 412.865 135.896 412.529 136.392C412.193 136.872 411.825 137.28 411.425 137.616C411.025 137.936 410.593 138.096 410.129 138.096C409.809 138.096 409.473 137.984 409.121 137.76C408.785 137.536 408.617 137.12 408.617 136.512C408.617 136.336 408.633 136.152 408.665 135.96C408.697 135.752 408.753 135.528 408.833 135.288C408.961 134.968 409.113 134.624 409.289 134.256C409.465 133.888 409.753 133.384 410.153 132.744C410.265 132.568 410.329 132.432 410.345 132.336C410.377 132.24 410.393 132.16 410.393 132.096C410.393 131.904 410.305 131.808 410.129 131.808C409.985 131.808 409.769 131.888 409.481 132.048C409.209 132.208 408.865 132.488 408.449 132.888C408.049 133.272 407.569 133.816 407.009 134.52C406.465 135.224 405.833 136.264 405.113 137.64C405.001 137.848 404.873 137.96 404.729 137.976C404.601 137.992 404.417 138.008 404.177 138.024C404.017 138.04 403.865 138.048 403.721 138.048C403.577 138.064 403.457 138.112 403.361 138.192Z"
                fill="black" />
            <path id="Vector_10"
                d="M402.387 138.072C402.211 138.088 402.011 138.048 401.787 137.952C401.563 137.856 401.363 137.68 401.187 137.424C401.027 137.168 400.947 136.808 400.947 136.344C400.947 135.96 401.019 135.496 401.163 134.952C400.971 135.256 400.723 135.632 400.419 136.08C400.115 136.512 399.787 136.896 399.435 137.232C399.131 137.52 398.843 137.728 398.571 137.856C398.299 137.984 398.051 138.048 397.827 138.048C397.411 138.048 397.075 137.864 396.819 137.496C396.563 137.112 396.435 136.616 396.435 136.008C396.435 135.368 396.595 134.64 396.915 133.824C397.235 133.008 397.755 132.16 398.475 131.28C398.939 130.72 399.499 130.272 400.155 129.936C400.827 129.584 401.483 129.408 402.123 129.408C402.491 129.408 402.843 129.472 403.179 129.6C403.515 129.712 403.811 129.904 404.067 130.176C404.179 130.288 404.235 130.416 404.235 130.56C404.235 130.656 404.195 130.736 404.115 130.8C404.035 130.864 403.931 130.88 403.803 130.848C403.627 130.288 403.251 130.008 402.675 130.008C402.403 130.008 402.091 130.096 401.739 130.272C401.195 130.56 400.627 131.032 400.035 131.688C399.459 132.344 398.955 133.024 398.523 133.728C398.459 133.824 398.355 134.008 398.211 134.28C398.083 134.552 397.955 134.856 397.827 135.192C397.699 135.528 397.611 135.856 397.563 136.176C397.547 136.272 397.539 136.344 397.539 136.392C397.539 136.424 397.539 136.48 397.539 136.56C397.539 137.088 397.739 137.352 398.139 137.352C398.619 137.352 399.163 137 399.771 136.296C400.187 135.784 400.563 135.248 400.899 134.688C401.235 134.128 401.579 133.528 401.931 132.888C402.171 132.456 402.395 132.096 402.603 131.808C402.811 131.52 403.107 131.376 403.491 131.376C403.667 131.376 403.843 131.4 404.019 131.448C404.195 131.496 404.379 131.504 404.571 131.472C404.443 131.6 404.267 131.84 404.043 132.192C403.835 132.544 403.611 132.944 403.371 133.392C403.131 133.84 402.915 134.296 402.723 134.76C402.531 135.224 402.395 135.624 402.315 135.96C402.299 136.056 402.275 136.192 402.243 136.368C402.227 136.544 402.219 136.672 402.219 136.752C402.219 137.2 402.347 137.424 402.603 137.424C402.859 137.424 403.131 137.272 403.419 136.968C403.723 136.664 404.019 136.288 404.307 135.84C404.595 135.392 404.859 134.944 405.099 134.496C405.339 134.032 405.531 133.656 405.675 133.368C405.739 133.208 405.835 133.128 405.963 133.128C406.043 133.128 406.083 133.184 406.083 133.296C406.083 133.344 406.059 133.432 406.011 133.56C405.819 133.96 405.587 134.416 405.315 134.928C405.043 135.424 404.747 135.912 404.427 136.392C404.107 136.856 403.771 137.248 403.419 137.568C403.083 137.872 402.739 138.04 402.387 138.072Z"
                fill="black" />
            <path id="Vector_11"
                d="M395.673 128.256C395.433 128.256 395.233 128.176 395.073 128.016C394.929 127.84 394.857 127.632 394.857 127.392C394.857 127.088 394.977 126.824 395.217 126.6C395.457 126.376 395.721 126.264 396.009 126.264C396.265 126.264 396.473 126.344 396.633 126.504C396.793 126.664 396.873 126.856 396.873 127.08C396.873 127.384 396.753 127.656 396.513 127.896C396.273 128.136 395.993 128.256 395.673 128.256ZM393.729 138C393.137 138 392.721 137.832 392.481 137.496C392.241 137.144 392.121 136.744 392.121 136.296C392.121 136.056 392.145 135.816 392.193 135.576C392.257 135.32 392.329 135.088 392.409 134.88L394.017 130.776C394.065 130.648 394.089 130.536 394.089 130.44C394.089 130.28 394.049 130.144 393.969 130.032C393.889 129.904 393.833 129.816 393.801 129.768L395.121 129.72C395.361 129.704 395.529 129.736 395.625 129.816C395.737 129.88 395.793 129.96 395.793 130.056C395.793 130.152 395.737 130.328 395.625 130.584L393.633 135.264C393.633 135.264 393.585 135.368 393.489 135.576C393.409 135.768 393.361 135.896 393.345 135.96C393.297 136.2 393.265 136.352 393.249 136.416C393.233 136.48 393.225 136.52 393.225 136.536C393.225 136.552 393.225 136.616 393.225 136.728C393.225 136.936 393.273 137.112 393.369 137.256C393.481 137.4 393.665 137.472 393.921 137.472C394.081 137.472 394.265 137.424 394.473 137.328C394.681 137.232 394.833 137.136 394.929 137.04C395.329 136.624 395.721 136.08 396.105 135.408C396.505 134.72 396.873 134.04 397.209 133.368C397.273 133.208 397.353 133.128 397.449 133.128C397.529 133.128 397.569 133.184 397.569 133.296C397.569 133.36 397.545 133.456 397.497 133.584C397.337 133.92 397.137 134.336 396.897 134.832C396.657 135.328 396.369 135.824 396.033 136.32C395.713 136.8 395.361 137.2 394.977 137.52C394.593 137.84 394.177 138 393.729 138Z"
                fill="black" />
            <path id="Vector_12"
                d="M381.227 144.552C381.035 144.552 380.843 144.52 380.651 144.456C380.443 144.408 380.235 144.4 380.027 144.432C380.123 144.336 380.307 144.056 380.579 143.592C380.851 143.144 381.171 142.584 381.539 141.912C381.891 141.24 382.267 140.512 382.667 139.728C383.067 138.944 383.443 138.176 383.795 137.424C384.147 136.656 384.443 135.96 384.683 135.336C384.939 134.696 385.099 134.192 385.163 133.824C385.019 134.032 384.875 134.152 384.731 134.184C384.603 134.2 384.571 134.152 384.635 134.04C384.667 133.976 384.731 133.824 384.827 133.584C384.939 133.328 385.035 133.112 385.115 132.936C385.243 132.616 385.347 132.264 385.427 131.88C385.523 131.496 385.571 131.128 385.571 130.776C385.571 130.552 385.547 130.36 385.499 130.2C385.451 130.04 385.363 129.952 385.235 129.936C385.235 129.936 385.323 129.92 385.499 129.888C385.675 129.856 385.859 129.824 386.051 129.792C386.243 129.76 386.371 129.744 386.435 129.744C386.531 129.728 386.619 129.72 386.699 129.72C386.779 129.704 386.851 129.696 386.915 129.696C387.059 129.696 387.155 129.752 387.203 129.864C387.267 129.96 387.299 130.168 387.299 130.488C387.299 130.888 387.227 131.4 387.083 132.024C386.955 132.632 386.803 133.168 386.627 133.632C386.803 133.344 387.027 132.976 387.299 132.528C387.587 132.08 387.915 131.624 388.283 131.16C388.651 130.696 389.035 130.312 389.435 130.008C389.835 129.688 390.227 129.528 390.611 129.528C390.691 129.528 390.795 129.544 390.923 129.576C391.371 129.688 391.683 129.912 391.859 130.248C392.051 130.568 392.147 130.952 392.147 131.4C392.147 131.88 392.051 132.408 391.859 132.984C391.683 133.56 391.443 134.128 391.139 134.688C390.835 135.232 390.499 135.728 390.131 136.176C389.683 136.736 389.147 137.184 388.523 137.52C387.899 137.856 387.259 138.024 386.603 138.024C386.011 138.024 385.459 137.872 384.947 137.568L382.667 143.304C382.443 143.784 382.227 144.112 382.019 144.288C381.811 144.464 381.547 144.552 381.227 144.552ZM385.835 137.52C386.283 137.52 386.787 137.312 387.347 136.896C387.907 136.48 388.443 135.952 388.955 135.312C389.483 134.656 389.923 134 390.275 133.344C390.515 132.896 390.691 132.488 390.803 132.12C390.915 131.736 390.971 131.408 390.971 131.136C390.971 130.512 390.747 130.2 390.299 130.2C390.091 130.2 389.819 130.312 389.483 130.536C389.163 130.76 388.787 131.168 388.355 131.76C387.891 132.4 387.379 133.208 386.819 134.184C386.275 135.144 385.715 136.16 385.139 137.232C385.331 137.424 385.563 137.52 385.835 137.52Z"
                fill="black" />
            <path id="Vector_13"
                d="M377.671 133.344C377.575 133.36 377.479 133.288 377.383 133.128C377.303 132.952 377.263 132.784 377.263 132.624C377.263 132.496 377.295 132.392 377.359 132.312C377.423 132.216 377.527 132.168 377.671 132.168C378.087 132.168 378.775 132.176 379.735 132.192C380.695 132.208 381.775 132.232 382.975 132.264C383.135 132.264 383.255 132.312 383.335 132.408C383.431 132.504 383.479 132.592 383.479 132.672C383.479 132.832 383.343 132.912 383.071 132.912C381.951 132.912 380.951 132.968 380.071 133.08C379.191 133.176 378.391 133.264 377.671 133.344Z"
                fill="black" />
            <path id="Vector_14"
                d="M371.801 138.072C371.625 138.088 371.425 138.048 371.201 137.952C370.977 137.856 370.777 137.68 370.601 137.424C370.441 137.168 370.361 136.808 370.361 136.344C370.361 135.96 370.433 135.496 370.577 134.952C370.385 135.256 370.137 135.632 369.833 136.08C369.529 136.512 369.201 136.896 368.849 137.232C368.545 137.52 368.257 137.728 367.985 137.856C367.713 137.984 367.465 138.048 367.241 138.048C366.825 138.048 366.489 137.864 366.233 137.496C365.977 137.112 365.849 136.616 365.849 136.008C365.849 135.368 366.009 134.64 366.329 133.824C366.649 133.008 367.169 132.16 367.889 131.28C368.353 130.72 368.913 130.272 369.569 129.936C370.241 129.584 370.897 129.408 371.537 129.408C371.905 129.408 372.257 129.472 372.593 129.6C372.929 129.712 373.225 129.904 373.481 130.176C373.593 130.288 373.649 130.416 373.649 130.56C373.649 130.656 373.609 130.736 373.529 130.8C373.449 130.864 373.345 130.88 373.217 130.848C373.041 130.288 372.665 130.008 372.089 130.008C371.817 130.008 371.505 130.096 371.153 130.272C370.609 130.56 370.041 131.032 369.449 131.688C368.873 132.344 368.369 133.024 367.937 133.728C367.873 133.824 367.769 134.008 367.625 134.28C367.497 134.552 367.369 134.856 367.241 135.192C367.113 135.528 367.025 135.856 366.977 136.176C366.961 136.272 366.953 136.344 366.953 136.392C366.953 136.424 366.953 136.48 366.953 136.56C366.953 137.088 367.153 137.352 367.553 137.352C368.033 137.352 368.577 137 369.185 136.296C369.601 135.784 369.977 135.248 370.313 134.688C370.649 134.128 370.993 133.528 371.345 132.888C371.585 132.456 371.809 132.096 372.017 131.808C372.225 131.52 372.521 131.376 372.905 131.376C373.081 131.376 373.257 131.4 373.433 131.448C373.609 131.496 373.793 131.504 373.985 131.472C373.857 131.6 373.681 131.84 373.457 132.192C373.249 132.544 373.025 132.944 372.785 133.392C372.545 133.84 372.329 134.296 372.137 134.76C371.945 135.224 371.809 135.624 371.729 135.96C371.713 136.056 371.689 136.192 371.657 136.368C371.641 136.544 371.633 136.672 371.633 136.752C371.633 137.2 371.761 137.424 372.017 137.424C372.273 137.424 372.545 137.272 372.833 136.968C373.137 136.664 373.433 136.288 373.721 135.84C374.009 135.392 374.273 134.944 374.513 134.496C374.753 134.032 374.945 133.656 375.089 133.368C375.153 133.208 375.249 133.128 375.377 133.128C375.457 133.128 375.497 133.184 375.497 133.296C375.497 133.344 375.473 133.432 375.425 133.56C375.233 133.96 375.001 134.416 374.729 134.928C374.457 135.424 374.161 135.912 373.841 136.392C373.521 136.856 373.185 137.248 372.833 137.568C372.497 137.872 372.153 138.04 371.801 138.072Z"
                fill="black" />
            <path id="Vector_15"
                d="M363.216 138.024C362.912 138.024 362.608 137.904 362.304 137.664C362 137.408 361.848 137 361.848 136.44C361.848 136.008 361.952 135.512 362.16 134.952C362.352 134.408 362.608 133.88 362.928 133.368C363.264 132.856 363.504 132.44 363.648 132.12C363.696 131.992 363.72 131.88 363.72 131.784C363.72 131.496 363.536 131.288 363.168 131.16C362.816 131.032 362.352 130.96 361.776 130.944L361.488 131.736C361.312 132.248 361.064 132.848 360.744 133.536C360.44 134.224 360.096 134.888 359.712 135.528C359.344 136.168 358.96 136.68 358.56 137.064C358.528 137.096 358.488 137.112 358.44 137.112C358.376 137.112 358.336 137.072 358.32 136.992C358.288 136.912 358.32 136.816 358.416 136.704C359.04 135.872 359.6 134.952 360.096 133.944C360.592 132.92 361.008 131.88 361.344 130.824C361.696 129.768 361.952 128.792 362.112 127.896C362.16 127.64 362.248 127.456 362.376 127.344C362.504 127.216 362.64 127.152 362.784 127.152C362.992 127.152 363.184 127.256 363.36 127.464C363.536 127.656 363.624 127.936 363.624 128.304C363.624 128.368 363.616 128.44 363.6 128.52C363.6 128.6 363.592 128.68 363.576 128.76C363.512 129.096 363.32 129.416 363 129.72C362.696 130.008 362.448 130.224 362.256 130.368C362.416 130.384 362.584 130.4 362.76 130.416C362.936 130.416 363.128 130.416 363.336 130.416C364.088 130.416 364.832 130.368 365.568 130.272C365.6 130.368 365.616 130.44 365.616 130.488C365.616 130.696 365.552 130.96 365.424 131.28C365.312 131.6 365.192 131.888 365.064 132.144C365 132.288 364.872 132.552 364.68 132.936C364.488 133.304 364.28 133.728 364.056 134.208C363.832 134.672 363.64 135.136 363.48 135.6C363.336 136.048 363.264 136.432 363.264 136.752C363.264 137.168 363.424 137.376 363.744 137.376C363.984 137.376 364.248 137.224 364.536 136.92C364.824 136.6 365.104 136.216 365.376 135.768C365.664 135.304 365.92 134.856 366.144 134.424C366.384 133.976 366.568 133.624 366.696 133.368C366.76 133.208 366.848 133.128 366.96 133.128C367.024 133.128 367.056 133.184 367.056 133.296C367.056 133.36 367.032 133.456 366.984 133.584C366.808 133.952 366.6 134.368 366.36 134.832C366.12 135.296 365.848 135.752 365.544 136.2C365.256 136.648 364.936 137.04 364.584 137.376C364.248 137.696 363.88 137.904 363.48 138C363.432 138.016 363.344 138.024 363.216 138.024Z"
                fill="black" />
            <path id="Vector_16"
                d="M353.473 138C352.865 138 352.417 137.8 352.129 137.4C351.841 136.984 351.697 136.48 351.697 135.888C351.697 135.168 351.865 134.416 352.201 133.632C352.521 132.896 352.929 132.224 353.425 131.616C353.921 131.008 354.457 130.52 355.033 130.152C355.609 129.768 356.169 129.576 356.713 129.576C357.321 129.576 357.769 129.776 358.057 130.176C358.345 130.576 358.489 131.08 358.489 131.688C358.489 132.424 358.321 133.176 357.985 133.944C357.793 134.376 357.521 134.856 357.169 135.384C356.817 135.896 356.417 136.368 355.969 136.8C356.065 136.976 356.201 137.128 356.377 137.256C356.553 137.368 356.793 137.424 357.097 137.424C357.481 137.424 357.841 137.264 358.177 136.944C358.529 136.624 358.849 136.24 359.137 135.792C359.425 135.328 359.681 134.864 359.905 134.4C360.129 133.936 360.313 133.56 360.457 133.272C360.505 133.176 360.585 133.128 360.697 133.128C360.761 133.128 360.809 133.16 360.841 133.224C360.873 133.272 360.865 133.352 360.817 133.464C360.721 133.704 360.561 134.064 360.337 134.544C360.113 135.008 359.841 135.496 359.521 136.008C359.201 136.504 358.833 136.928 358.417 137.28C358.001 137.632 357.537 137.808 357.025 137.808C356.673 137.808 356.369 137.752 356.113 137.64C355.857 137.512 355.649 137.36 355.489 137.184C355.153 137.44 354.817 137.64 354.481 137.784C354.145 137.928 353.809 138 353.473 138ZM353.833 137.472C354.265 137.472 354.729 137.264 355.225 136.848C355.097 136.656 355.001 136.456 354.937 136.248C354.873 136.04 354.841 135.848 354.841 135.672C354.841 135.384 354.905 135.136 355.033 134.928C355.177 134.72 355.393 134.616 355.681 134.616C355.889 134.616 356.057 134.696 356.185 134.856C356.329 135 356.401 135.168 356.401 135.36C356.401 135.408 356.393 135.456 356.377 135.504C356.377 135.536 356.369 135.576 356.353 135.624C356.625 135.256 356.881 134.824 357.121 134.328C357.649 133.192 357.913 132.256 357.913 131.52C357.913 131.152 357.841 130.864 357.697 130.656C357.553 130.448 357.337 130.344 357.049 130.344C356.713 130.344 356.345 130.488 355.945 130.776C355.561 131.064 355.185 131.448 354.817 131.928C354.465 132.408 354.153 132.944 353.881 133.536C353.625 134.08 353.417 134.608 353.257 135.12C353.113 135.616 353.041 136.048 353.041 136.416C353.041 136.736 353.105 136.992 353.233 137.184C353.361 137.376 353.561 137.472 353.833 137.472Z"
                fill="black" />
            <path id="Vector_17"
                d="M337.939 140.208C336.371 140.208 334.931 139.976 333.619 139.512C332.323 139.048 331.275 138.368 330.475 137.472C329.675 136.56 329.235 135.44 329.155 134.112C329.123 133.568 329.211 132.968 329.419 132.312C329.627 131.656 329.915 131.008 330.283 130.368C330.667 129.712 331.115 129.128 331.627 128.616C332.155 128.088 332.715 127.688 333.307 127.416C333.355 127.384 333.427 127.36 333.523 127.344C333.635 127.328 333.715 127.32 333.763 127.32C333.859 127.32 333.907 127.344 333.907 127.392C333.907 127.472 333.787 127.6 333.547 127.776C332.875 128.304 332.323 128.912 331.891 129.6C331.443 130.288 331.107 131.024 330.883 131.808C330.659 132.592 330.547 133.384 330.547 134.184C330.547 135.128 330.747 135.944 331.147 136.632C331.563 137.304 332.115 137.856 332.803 138.288C333.491 138.736 334.275 139.064 335.155 139.272C336.035 139.48 336.955 139.584 337.915 139.584C338.987 139.584 340.043 139.464 341.083 139.224C342.139 138.984 343.099 138.64 343.963 138.192C345.291 137.488 346.339 136.616 347.107 135.576C347.891 134.536 348.283 133.504 348.283 132.48C348.283 131.936 348.163 131.416 347.923 130.92C347.699 130.424 347.331 129.976 346.819 129.576C346.435 129.272 345.963 128.984 345.403 128.712C344.859 128.44 344.275 128.176 343.651 127.92C343.043 127.664 342.443 127.408 341.851 127.152C341.259 126.88 340.739 126.592 340.291 126.288C339.651 125.856 339.179 125.392 338.875 124.896C338.587 124.4 338.443 123.904 338.443 123.408C338.443 122.816 338.611 122.24 338.947 121.68C339.299 121.12 339.771 120.616 340.363 120.168C340.971 119.704 341.651 119.344 342.403 119.088C343.059 118.864 343.771 118.688 344.539 118.56C345.323 118.432 346.091 118.368 346.843 118.368C347.467 118.368 348.059 118.416 348.619 118.512C349.195 118.592 349.699 118.744 350.131 118.968C350.675 119.224 351.091 119.568 351.379 120C351.667 120.416 351.811 120.856 351.811 121.32C351.811 121.96 351.523 122.52 350.947 123C350.739 123.16 350.507 123.312 350.251 123.456C349.995 123.584 349.691 123.696 349.339 123.792C349.275 123.808 349.203 123.816 349.123 123.816C348.931 123.816 348.835 123.76 348.835 123.648C348.835 123.584 348.883 123.52 348.979 123.456C349.091 123.376 349.251 123.328 349.459 123.312C349.939 123.248 350.299 123.064 350.539 122.76C350.795 122.456 350.923 122.104 350.923 121.704C350.923 121.288 350.779 120.88 350.491 120.48C350.219 120.064 349.795 119.72 349.219 119.448C348.643 119.16 347.907 119.016 347.011 119.016C346.499 119.016 345.931 119.072 345.307 119.184C344.699 119.296 344.035 119.48 343.315 119.736C342.435 120.04 341.699 120.488 341.107 121.08C340.531 121.672 340.243 122.304 340.243 122.976C340.243 123.392 340.379 123.816 340.651 124.248C340.939 124.664 341.395 125.064 342.019 125.448C342.547 125.768 343.147 126.088 343.819 126.408C344.491 126.712 345.171 127.024 345.859 127.344C346.547 127.648 347.171 127.976 347.731 128.328C348.611 128.872 349.243 129.456 349.627 130.08C350.011 130.704 350.203 131.344 350.203 132C350.203 132.768 349.971 133.544 349.507 134.328C349.059 135.096 348.467 135.824 347.731 136.512C346.995 137.184 346.187 137.784 345.307 138.312C344.283 138.92 343.123 139.384 341.827 139.704C340.547 140.04 339.251 140.208 337.939 140.208Z"
                fill="black" />
            <path id="Vector_18"
                d="M311.463 145.656C310.631 145.656 310.039 145.488 309.687 145.152C309.335 144.832 309.159 144.448 309.159 144C309.159 143.76 309.191 143.552 309.255 143.376C309.319 143.2 309.415 142.976 309.543 142.704C309.767 142.24 310.079 141.84 310.479 141.504C310.879 141.168 311.311 140.896 311.775 140.688C312.607 140.304 313.551 139.992 314.607 139.752C315.679 139.512 316.703 139.248 317.679 138.96C317.983 138.432 318.263 137.832 318.519 137.16C318.775 136.472 319.007 135.808 319.215 135.168C319.423 134.512 319.591 133.976 319.719 133.56C319.527 133.912 319.279 134.344 318.975 134.856C318.687 135.352 318.359 135.84 317.991 136.32C317.623 136.8 317.223 137.2 316.791 137.52C316.375 137.84 315.935 138 315.471 138C315.295 138 315.079 137.96 314.823 137.88C314.583 137.8 314.367 137.656 314.175 137.448C313.999 137.224 313.911 136.896 313.911 136.464C313.911 136.048 314.007 135.648 314.199 135.264C314.407 134.864 314.599 134.48 314.775 134.112C314.727 134.112 314.671 134.096 314.607 134.064C314.559 134.032 314.535 133.984 314.535 133.92C314.535 133.856 314.551 133.792 314.583 133.728C314.647 133.6 314.719 133.464 314.799 133.32C314.879 133.176 314.951 133.024 315.015 132.864C315.255 132.368 315.495 131.896 315.735 131.448C315.975 130.984 316.183 130.576 316.359 130.224C316.535 129.872 316.839 129.696 317.271 129.696H318.759C318.647 129.792 318.503 129.904 318.327 130.032C318.167 130.144 318.015 130.32 317.871 130.56C317.439 131.296 317.063 132.008 316.743 132.696C316.423 133.368 316.079 134.088 315.711 134.856C315.535 135.224 315.407 135.56 315.327 135.864C315.247 136.168 315.207 136.432 315.207 136.656C315.207 137.184 315.383 137.448 315.735 137.448C316.119 137.448 316.583 137.136 317.127 136.512C317.575 135.984 318.023 135.36 318.471 134.64C318.935 133.904 319.375 133.152 319.791 132.384C320.223 131.6 320.599 130.88 320.919 130.224C321.095 129.872 321.407 129.696 321.855 129.696H323.175C322.711 130.016 322.351 130.432 322.095 130.944C321.855 131.456 321.583 132.112 321.279 132.912C320.943 133.792 320.623 134.704 320.319 135.648C320.031 136.576 319.703 137.512 319.335 138.456C319.863 138.28 320.455 138.008 321.111 137.64C321.783 137.272 322.351 136.744 322.815 136.056C323.183 135.512 323.495 134.992 323.751 134.496C324.023 133.984 324.215 133.616 324.327 133.392C324.391 133.232 324.479 133.152 324.591 133.152C324.703 133.152 324.759 133.224 324.759 133.368C324.759 133.448 324.735 133.536 324.687 133.632C324.271 134.464 323.895 135.168 323.559 135.744C323.239 136.304 322.879 136.792 322.479 137.208C322.095 137.608 321.623 137.96 321.063 138.264C320.503 138.584 319.791 138.904 318.927 139.224C318.543 139.912 318.103 140.624 317.607 141.36C317.127 142.112 316.575 142.808 315.951 143.448C315.343 144.104 314.663 144.632 313.911 145.032C313.175 145.448 312.359 145.656 311.463 145.656ZM310.887 145.176C311.415 145.176 311.959 145.016 312.519 144.696C313.079 144.376 313.623 143.968 314.151 143.472C314.679 142.992 315.159 142.496 315.591 141.984C316.039 141.488 316.399 141.048 316.671 140.664C316.751 140.552 316.839 140.408 316.935 140.232C317.031 140.056 317.127 139.888 317.223 139.728C316.439 139.936 315.575 140.16 314.631 140.4C313.703 140.656 312.895 140.936 312.207 141.24C311.439 141.56 310.839 142.016 310.407 142.608C309.959 143.2 309.735 143.728 309.735 144.192C309.735 144.48 309.831 144.712 310.023 144.888C310.199 145.08 310.487 145.176 310.887 145.176Z"
                fill="black" />
            <path id="Vector_19"
                d="M304.361 138.192C304.937 137.024 305.489 135.872 306.017 134.736C306.561 133.584 307.113 132.488 307.673 131.448C307.993 130.872 308.257 130.472 308.465 130.248C308.689 130.008 308.985 129.888 309.353 129.888C309.481 129.888 309.617 129.912 309.761 129.96C309.905 129.992 310.049 130.008 310.193 130.008C310.289 130.008 310.361 130 310.409 129.984C310.185 130.112 309.897 130.432 309.545 130.944C309.193 131.44 308.833 132.016 308.465 132.672C308.097 133.328 307.769 133.944 307.481 134.52C307.785 134.152 308.097 133.784 308.417 133.416C308.753 133.048 309.121 132.696 309.521 132.36C309.905 132.024 310.361 131.68 310.889 131.328C311.433 130.96 311.961 130.656 312.473 130.416C312.985 130.176 313.393 130.056 313.697 130.056C313.809 130.056 313.889 130.064 313.937 130.08C313.937 130.08 313.849 130.24 313.673 130.56C313.497 130.864 313.273 131.272 313.001 131.784C312.745 132.28 312.481 132.816 312.209 133.392C311.937 133.952 311.689 134.496 311.465 135.024C311.257 135.536 311.121 135.968 311.057 136.32C311.009 136.528 310.985 136.72 310.985 136.896C310.985 137.152 311.033 137.32 311.129 137.4C311.225 137.48 311.329 137.52 311.441 137.52C311.745 137.52 312.065 137.36 312.401 137.04C312.737 136.704 313.057 136.296 313.361 135.816C313.681 135.336 313.961 134.872 314.201 134.424C314.457 133.96 314.641 133.608 314.753 133.368C314.817 133.24 314.865 133.168 314.897 133.152C314.929 133.12 314.977 133.104 315.041 133.104C315.137 133.104 315.185 133.168 315.185 133.296C315.185 133.376 315.161 133.464 315.113 133.56C314.921 133.928 314.689 134.368 314.417 134.88C314.161 135.392 313.865 135.896 313.529 136.392C313.193 136.872 312.825 137.28 312.425 137.616C312.025 137.936 311.593 138.096 311.129 138.096C310.809 138.096 310.473 137.984 310.121 137.76C309.785 137.536 309.617 137.12 309.617 136.512C309.617 136.336 309.633 136.152 309.665 135.96C309.697 135.752 309.753 135.528 309.833 135.288C309.961 134.968 310.113 134.624 310.289 134.256C310.465 133.888 310.753 133.384 311.153 132.744C311.265 132.568 311.329 132.432 311.345 132.336C311.377 132.24 311.393 132.16 311.393 132.096C311.393 131.904 311.305 131.808 311.129 131.808C310.985 131.808 310.769 131.888 310.481 132.048C310.209 132.208 309.865 132.488 309.449 132.888C309.049 133.272 308.569 133.816 308.009 134.52C307.465 135.224 306.833 136.264 306.113 137.64C306.001 137.848 305.873 137.96 305.729 137.976C305.601 137.992 305.417 138.008 305.177 138.024C305.017 138.04 304.865 138.048 304.721 138.048C304.577 138.064 304.457 138.112 304.361 138.192Z"
                fill="black" />
            <path id="Vector_20"
                d="M305.509 124.872C305.477 124.888 305.453 124.904 305.437 124.92C305.421 124.92 305.397 124.92 305.365 124.92C305.285 124.92 305.245 124.888 305.245 124.824C305.245 124.728 305.317 124.656 305.461 124.608C305.925 124.464 306.333 124.216 306.685 123.864C307.037 123.512 307.245 123.064 307.309 122.52C307.101 122.68 306.869 122.76 306.613 122.76C306.373 122.76 306.173 122.688 306.013 122.544C305.853 122.384 305.773 122.192 305.773 121.968C305.773 121.616 305.893 121.336 306.133 121.128C306.373 120.904 306.645 120.792 306.949 120.792C307.301 120.792 307.549 120.928 307.693 121.2C307.853 121.472 307.933 121.768 307.933 122.088C307.933 122.616 307.797 123.072 307.525 123.456C307.269 123.824 306.949 124.128 306.565 124.368C306.197 124.592 305.845 124.76 305.509 124.872Z"
                fill="black" />
            <path id="Vector_21"
                d="M292.478 138.192C293.054 137.024 293.606 135.872 294.134 134.736C294.678 133.584 295.23 132.488 295.79 131.448C296.11 130.872 296.374 130.472 296.582 130.248C296.806 130.008 297.102 129.888 297.47 129.888C297.598 129.888 297.734 129.912 297.878 129.96C298.022 129.992 298.166 130.008 298.31 130.008C298.406 130.008 298.478 130 298.526 129.984C298.302 130.112 298.014 130.432 297.662 130.944C297.31 131.44 296.95 132.016 296.582 132.672C296.214 133.328 295.886 133.944 295.598 134.52C295.902 134.152 296.214 133.784 296.534 133.416C296.87 133.048 297.238 132.696 297.638 132.36C298.022 132.024 298.478 131.68 299.006 131.328C299.55 130.96 300.078 130.656 300.59 130.416C301.102 130.176 301.51 130.056 301.814 130.056C301.926 130.056 302.006 130.064 302.054 130.08C302.054 130.08 301.966 130.24 301.79 130.56C301.614 130.864 301.39 131.272 301.118 131.784C300.862 132.28 300.598 132.816 300.326 133.392C300.054 133.952 299.806 134.496 299.582 135.024C299.374 135.536 299.238 135.968 299.174 136.32C299.126 136.528 299.102 136.72 299.102 136.896C299.102 137.152 299.15 137.32 299.246 137.4C299.342 137.48 299.446 137.52 299.558 137.52C299.862 137.52 300.182 137.36 300.518 137.04C300.854 136.704 301.174 136.296 301.478 135.816C301.798 135.336 302.078 134.872 302.318 134.424C302.574 133.96 302.758 133.608 302.87 133.368C302.934 133.24 302.982 133.168 303.014 133.152C303.046 133.12 303.094 133.104 303.158 133.104C303.254 133.104 303.302 133.168 303.302 133.296C303.302 133.376 303.278 133.464 303.23 133.56C303.038 133.928 302.806 134.368 302.534 134.88C302.278 135.392 301.982 135.896 301.646 136.392C301.31 136.872 300.942 137.28 300.542 137.616C300.142 137.936 299.71 138.096 299.246 138.096C298.926 138.096 298.59 137.984 298.238 137.76C297.902 137.536 297.734 137.12 297.734 136.512C297.734 136.336 297.75 136.152 297.782 135.96C297.814 135.752 297.87 135.528 297.95 135.288C298.078 134.968 298.23 134.624 298.406 134.256C298.582 133.888 298.87 133.384 299.27 132.744C299.382 132.568 299.446 132.432 299.462 132.336C299.494 132.24 299.51 132.16 299.51 132.096C299.51 131.904 299.422 131.808 299.246 131.808C299.102 131.808 298.886 131.888 298.598 132.048C298.326 132.208 297.982 132.488 297.566 132.888C297.166 133.272 296.686 133.816 296.126 134.52C295.582 135.224 294.95 136.264 294.23 137.64C294.118 137.848 293.99 137.96 293.846 137.976C293.718 137.992 293.534 138.008 293.294 138.024C293.134 138.04 292.982 138.048 292.838 138.048C292.694 138.064 292.574 138.112 292.478 138.192Z"
                fill="black" />
            <path id="Vector_22"
                d="M291.505 138.072C291.329 138.088 291.129 138.048 290.905 137.952C290.681 137.856 290.481 137.68 290.305 137.424C290.145 137.168 290.065 136.808 290.065 136.344C290.065 135.96 290.137 135.496 290.281 134.952C290.089 135.256 289.841 135.632 289.537 136.08C289.233 136.512 288.905 136.896 288.553 137.232C288.249 137.52 287.961 137.728 287.689 137.856C287.417 137.984 287.169 138.048 286.945 138.048C286.529 138.048 286.193 137.864 285.937 137.496C285.681 137.112 285.553 136.616 285.553 136.008C285.553 135.368 285.713 134.64 286.033 133.824C286.353 133.008 286.873 132.16 287.593 131.28C288.057 130.72 288.617 130.272 289.273 129.936C289.945 129.584 290.601 129.408 291.241 129.408C291.609 129.408 291.961 129.472 292.297 129.6C292.633 129.712 292.929 129.904 293.185 130.176C293.297 130.288 293.353 130.416 293.353 130.56C293.353 130.656 293.313 130.736 293.233 130.8C293.153 130.864 293.049 130.88 292.921 130.848C292.745 130.288 292.369 130.008 291.793 130.008C291.521 130.008 291.209 130.096 290.857 130.272C290.313 130.56 289.745 131.032 289.153 131.688C288.577 132.344 288.073 133.024 287.641 133.728C287.577 133.824 287.473 134.008 287.329 134.28C287.201 134.552 287.073 134.856 286.945 135.192C286.817 135.528 286.729 135.856 286.681 136.176C286.665 136.272 286.657 136.344 286.657 136.392C286.657 136.424 286.657 136.48 286.657 136.56C286.657 137.088 286.857 137.352 287.257 137.352C287.737 137.352 288.281 137 288.889 136.296C289.305 135.784 289.681 135.248 290.017 134.688C290.353 134.128 290.697 133.528 291.049 132.888C291.289 132.456 291.513 132.096 291.721 131.808C291.929 131.52 292.225 131.376 292.609 131.376C292.785 131.376 292.961 131.4 293.137 131.448C293.313 131.496 293.497 131.504 293.689 131.472C293.561 131.6 293.385 131.84 293.161 132.192C292.953 132.544 292.729 132.944 292.489 133.392C292.249 133.84 292.033 134.296 291.841 134.76C291.649 135.224 291.513 135.624 291.433 135.96C291.417 136.056 291.393 136.192 291.361 136.368C291.345 136.544 291.337 136.672 291.337 136.752C291.337 137.2 291.465 137.424 291.721 137.424C291.977 137.424 292.249 137.272 292.537 136.968C292.841 136.664 293.137 136.288 293.425 135.84C293.713 135.392 293.977 134.944 294.217 134.496C294.457 134.032 294.649 133.656 294.793 133.368C294.857 133.208 294.953 133.128 295.081 133.128C295.161 133.128 295.201 133.184 295.201 133.296C295.201 133.344 295.177 133.432 295.129 133.56C294.937 133.96 294.705 134.416 294.433 134.928C294.161 135.424 293.865 135.912 293.545 136.392C293.225 136.856 292.889 137.248 292.537 137.568C292.201 137.872 291.857 138.04 291.505 138.072Z"
                fill="black" />
            <path id="Vector_23"
                d="M284.79 128.256C284.55 128.256 284.35 128.176 284.19 128.016C284.046 127.84 283.974 127.632 283.974 127.392C283.974 127.088 284.094 126.824 284.334 126.6C284.574 126.376 284.838 126.264 285.126 126.264C285.382 126.264 285.59 126.344 285.75 126.504C285.91 126.664 285.99 126.856 285.99 127.08C285.99 127.384 285.87 127.656 285.63 127.896C285.39 128.136 285.11 128.256 284.79 128.256ZM282.846 138C282.254 138 281.838 137.832 281.598 137.496C281.358 137.144 281.238 136.744 281.238 136.296C281.238 136.056 281.262 135.816 281.31 135.576C281.374 135.32 281.446 135.088 281.526 134.88L283.134 130.776C283.182 130.648 283.206 130.536 283.206 130.44C283.206 130.28 283.166 130.144 283.086 130.032C283.006 129.904 282.95 129.816 282.918 129.768L284.238 129.72C284.478 129.704 284.646 129.736 284.742 129.816C284.854 129.88 284.91 129.96 284.91 130.056C284.91 130.152 284.854 130.328 284.742 130.584L282.75 135.264C282.75 135.264 282.702 135.368 282.606 135.576C282.526 135.768 282.478 135.896 282.462 135.96C282.414 136.2 282.382 136.352 282.366 136.416C282.35 136.48 282.342 136.52 282.342 136.536C282.342 136.552 282.342 136.616 282.342 136.728C282.342 136.936 282.39 137.112 282.486 137.256C282.598 137.4 282.782 137.472 283.038 137.472C283.198 137.472 283.382 137.424 283.59 137.328C283.798 137.232 283.95 137.136 284.046 137.04C284.446 136.624 284.838 136.08 285.222 135.408C285.622 134.72 285.99 134.04 286.326 133.368C286.39 133.208 286.47 133.128 286.566 133.128C286.646 133.128 286.686 133.184 286.686 133.296C286.686 133.36 286.662 133.456 286.614 133.584C286.454 133.92 286.254 134.336 286.014 134.832C285.774 135.328 285.486 135.824 285.15 136.32C284.83 136.8 284.478 137.2 284.094 137.52C283.71 137.84 283.294 138 282.846 138Z"
                fill="black" />
            <path id="Vector_24"
                d="M270.344 144.552C270.152 144.552 269.96 144.52 269.768 144.456C269.56 144.408 269.352 144.4 269.144 144.432C269.24 144.336 269.424 144.056 269.696 143.592C269.968 143.144 270.288 142.584 270.656 141.912C271.008 141.24 271.384 140.512 271.784 139.728C272.184 138.944 272.56 138.176 272.912 137.424C273.264 136.656 273.56 135.96 273.8 135.336C274.056 134.696 274.216 134.192 274.28 133.824C274.136 134.032 273.992 134.152 273.848 134.184C273.72 134.2 273.688 134.152 273.752 134.04C273.784 133.976 273.848 133.824 273.944 133.584C274.056 133.328 274.152 133.112 274.232 132.936C274.36 132.616 274.464 132.264 274.544 131.88C274.64 131.496 274.688 131.128 274.688 130.776C274.688 130.552 274.664 130.36 274.616 130.2C274.568 130.04 274.48 129.952 274.352 129.936C274.352 129.936 274.44 129.92 274.616 129.888C274.792 129.856 274.976 129.824 275.168 129.792C275.36 129.76 275.488 129.744 275.552 129.744C275.648 129.728 275.736 129.72 275.816 129.72C275.896 129.704 275.968 129.696 276.032 129.696C276.176 129.696 276.272 129.752 276.32 129.864C276.384 129.96 276.416 130.168 276.416 130.488C276.416 130.888 276.344 131.4 276.2 132.024C276.072 132.632 275.92 133.168 275.744 133.632C275.92 133.344 276.144 132.976 276.416 132.528C276.704 132.08 277.032 131.624 277.4 131.16C277.768 130.696 278.152 130.312 278.552 130.008C278.952 129.688 279.344 129.528 279.728 129.528C279.808 129.528 279.912 129.544 280.04 129.576C280.488 129.688 280.8 129.912 280.976 130.248C281.168 130.568 281.264 130.952 281.264 131.4C281.264 131.88 281.168 132.408 280.976 132.984C280.8 133.56 280.56 134.128 280.256 134.688C279.952 135.232 279.616 135.728 279.248 136.176C278.8 136.736 278.264 137.184 277.64 137.52C277.016 137.856 276.376 138.024 275.72 138.024C275.128 138.024 274.576 137.872 274.064 137.568L271.784 143.304C271.56 143.784 271.344 144.112 271.136 144.288C270.928 144.464 270.664 144.552 270.344 144.552ZM274.952 137.52C275.4 137.52 275.904 137.312 276.464 136.896C277.024 136.48 277.56 135.952 278.072 135.312C278.6 134.656 279.04 134 279.392 133.344C279.632 132.896 279.808 132.488 279.92 132.12C280.032 131.736 280.088 131.408 280.088 131.136C280.088 130.512 279.864 130.2 279.416 130.2C279.208 130.2 278.936 130.312 278.6 130.536C278.28 130.76 277.904 131.168 277.472 131.76C277.008 132.4 276.496 133.208 275.936 134.184C275.392 135.144 274.832 136.16 274.256 137.232C274.448 137.424 274.68 137.52 274.952 137.52Z"
                fill="black" />
            <path id="Vector_25"
                d="M267.105 138C266.497 138 266.049 137.8 265.761 137.4C265.473 136.984 265.329 136.48 265.329 135.888C265.329 135.168 265.497 134.416 265.833 133.632C266.153 132.896 266.561 132.224 267.057 131.616C267.553 131.008 268.089 130.52 268.665 130.152C269.241 129.768 269.801 129.576 270.345 129.576C270.953 129.576 271.401 129.776 271.689 130.176C271.977 130.576 272.121 131.08 272.121 131.688C272.121 132.424 271.953 133.176 271.617 133.944C271.425 134.376 271.153 134.856 270.801 135.384C270.449 135.896 270.049 136.368 269.601 136.8C269.697 136.976 269.833 137.128 270.009 137.256C270.185 137.368 270.425 137.424 270.729 137.424C271.113 137.424 271.473 137.264 271.809 136.944C272.161 136.624 272.481 136.24 272.769 135.792C273.057 135.328 273.313 134.864 273.537 134.4C273.761 133.936 273.945 133.56 274.089 133.272C274.137 133.176 274.217 133.128 274.329 133.128C274.393 133.128 274.441 133.16 274.473 133.224C274.505 133.272 274.497 133.352 274.449 133.464C274.353 133.704 274.193 134.064 273.969 134.544C273.745 135.008 273.473 135.496 273.153 136.008C272.833 136.504 272.465 136.928 272.049 137.28C271.633 137.632 271.169 137.808 270.657 137.808C270.305 137.808 270.001 137.752 269.745 137.64C269.489 137.512 269.281 137.36 269.121 137.184C268.785 137.44 268.449 137.64 268.113 137.784C267.777 137.928 267.441 138 267.105 138ZM267.465 137.472C267.897 137.472 268.361 137.264 268.857 136.848C268.729 136.656 268.633 136.456 268.569 136.248C268.505 136.04 268.473 135.848 268.473 135.672C268.473 135.384 268.537 135.136 268.665 134.928C268.809 134.72 269.025 134.616 269.313 134.616C269.521 134.616 269.689 134.696 269.817 134.856C269.961 135 270.033 135.168 270.033 135.36C270.033 135.408 270.025 135.456 270.009 135.504C270.009 135.536 270.001 135.576 269.985 135.624C270.257 135.256 270.513 134.824 270.753 134.328C271.281 133.192 271.545 132.256 271.545 131.52C271.545 131.152 271.473 130.864 271.329 130.656C271.185 130.448 270.969 130.344 270.681 130.344C270.345 130.344 269.977 130.488 269.577 130.776C269.193 131.064 268.817 131.448 268.449 131.928C268.097 132.408 267.785 132.944 267.513 133.536C267.257 134.08 267.049 134.608 266.889 135.12C266.745 135.616 266.673 136.048 266.673 136.416C266.673 136.736 266.737 136.992 266.865 137.184C266.993 137.376 267.193 137.472 267.465 137.472Z"
                fill="black" />
            <path id="Vector_26"
                d="M265.656 142.44C264.776 142.44 263.96 142.24 263.208 141.84C262.472 141.44 261.816 140.896 261.24 140.208C260.664 139.536 260.184 138.776 259.8 137.928C259.48 137.208 259.216 136.48 259.008 135.744C258.816 135.008 258.672 134.32 258.576 133.68C258.48 133.04 258.432 132.512 258.432 132.096C258.432 131.584 258.488 131.296 258.6 131.232C258.904 131.264 259.408 131.136 260.112 130.848C260.832 130.56 261.68 130.136 262.656 129.576C263.648 129.016 264.712 128.344 265.848 127.56C267 126.76 268.152 125.864 269.304 124.872C270.472 123.88 271.592 122.808 272.664 121.656C273.736 120.504 274.68 119.296 275.496 118.032C275.688 117.728 275.872 117.576 276.048 117.576C276.192 117.576 276.264 117.664 276.264 117.84C276.264 117.984 276.208 118.144 276.096 118.32C275.328 119.6 274.416 120.856 273.36 122.088C272.304 123.304 271.176 124.448 269.976 125.52C268.776 126.592 267.568 127.56 266.352 128.424C265.152 129.288 264 130.008 262.896 130.584C261.808 131.16 260.848 131.552 260.016 131.76C259.968 131.728 259.944 131.808 259.944 132C259.944 132.272 260 132.712 260.112 133.32C260.224 133.912 260.392 134.592 260.616 135.36C260.856 136.112 261.144 136.88 261.48 137.664C261.992 138.864 262.6 139.784 263.304 140.424C264.024 141.08 264.848 141.408 265.776 141.408C266.4 141.408 267.04 141.312 267.696 141.12C268.352 140.944 268.952 140.664 269.496 140.28C270.04 139.912 270.464 139.44 270.768 138.864C270.864 138.64 270.976 138.528 271.104 138.528C271.168 138.528 271.2 138.576 271.2 138.672C271.2 138.784 271.16 138.912 271.08 139.056C270.792 139.648 270.352 140.2 269.76 140.712C269.168 141.224 268.504 141.64 267.768 141.96C267.048 142.28 266.344 142.44 265.656 142.44ZM245.352 142.128C244.264 142.128 243.208 141.976 242.184 141.672C241.176 141.384 240.264 140.952 239.448 140.376C238.648 139.8 238.008 139.096 237.528 138.264C237.064 137.432 236.832 136.488 236.832 135.432C236.832 135.144 236.856 134.848 236.904 134.544C236.952 134.224 237.016 133.896 237.096 133.56C237.256 132.984 237.512 132.488 237.864 132.072C238.232 131.64 238.608 131.304 238.992 131.064C239.376 130.808 239.664 130.672 239.856 130.656H239.928C240.088 130.656 240.168 130.704 240.168 130.8C240.168 130.88 240.128 130.944 240.048 130.992C239.904 131.056 239.656 131.24 239.304 131.544C238.968 131.832 238.632 132.24 238.296 132.768C237.96 133.28 237.744 133.896 237.648 134.616C237.6 134.92 237.576 135.208 237.576 135.48C237.576 136.44 237.784 137.264 238.2 137.952C238.616 138.624 239.16 139.176 239.832 139.608C240.504 140.04 241.24 140.352 242.04 140.544C242.84 140.752 243.624 140.856 244.392 140.856C244.696 140.856 244.992 140.84 245.28 140.808C245.568 140.792 245.84 140.752 246.096 140.688C247.824 140.304 249.32 139.688 250.584 138.84C251.864 137.992 252.968 137.016 253.896 135.912C254.824 134.808 255.608 133.672 256.248 132.504C256.904 131.336 257.456 130.24 257.904 129.216C258 128.976 258.16 128.6 258.384 128.088C258.624 127.576 258.888 126.992 259.176 126.336C259.48 125.68 259.784 125.016 260.088 124.344C260.408 123.672 260.696 123.056 260.952 122.496C261.208 121.936 261.416 121.504 261.576 121.2C260.504 121.328 259.344 121.448 258.096 121.56C256.864 121.656 255.688 121.864 254.568 122.184C253.32 122.536 252.296 123.048 251.496 123.72C250.712 124.392 250.128 125.128 249.744 125.928C249.376 126.728 249.192 127.488 249.192 128.208C249.192 128.992 249.392 129.648 249.792 130.176C250.192 130.704 250.744 130.968 251.448 130.968C251.8 130.968 252.176 130.896 252.576 130.752C253.04 130.592 253.424 130.312 253.728 129.912C254.032 129.496 254.256 129.032 254.4 128.52C254.56 127.992 254.64 127.488 254.64 127.008C254.64 126.752 254.616 126.504 254.568 126.264V126.216C254.568 126.152 254.6 126.12 254.664 126.12C254.792 126.12 254.904 126.216 255 126.408C255.08 126.568 255.128 126.744 255.144 126.936C255.176 127.112 255.192 127.288 255.192 127.464C255.192 127.976 255.08 128.488 254.856 129C254.632 129.496 254.336 129.944 253.968 130.344C253.6 130.744 253.184 131.032 252.72 131.208C252.464 131.304 252.216 131.376 251.976 131.424C251.736 131.456 251.504 131.472 251.28 131.472C250.592 131.472 249.976 131.296 249.432 130.944C248.904 130.576 248.488 130.096 248.184 129.504C247.896 128.912 247.752 128.272 247.752 127.584C247.752 126.8 247.968 126.008 248.4 125.208C248.832 124.392 249.528 123.656 250.488 123C251.448 122.328 252.712 121.816 254.28 121.464C255.592 121.176 256.928 120.992 258.288 120.912C259.648 120.816 260.848 120.72 261.888 120.624C261.952 120.528 262.08 120.344 262.272 120.072C262.48 119.8 262.712 119.528 262.968 119.256C263.24 118.968 263.504 118.784 263.76 118.704C263.936 118.656 264.088 118.632 264.216 118.632C264.504 118.632 264.728 118.712 264.888 118.872C265.064 119.032 265.152 119.224 265.152 119.448C265.152 119.768 264.928 120.112 264.48 120.48C264.048 120.832 263.312 121.064 262.272 121.176C261.76 122.12 261.288 123.168 260.856 124.32C260.424 125.456 259.992 126.648 259.56 127.896C259.144 129.128 258.68 130.368 258.168 131.616C257.672 132.848 257.104 134.04 256.464 135.192C255.824 136.328 255.064 137.368 254.184 138.312C253.32 139.256 252.296 140.048 251.112 140.688C249.944 141.328 248.584 141.768 247.032 142.008C246.76 142.04 246.48 142.064 246.192 142.08C245.904 142.112 245.624 142.128 245.352 142.128ZM262.728 120.576C263.224 120.496 263.576 120.4 263.784 120.288C264.008 120.16 264.168 120.032 264.264 119.904C264.376 119.776 264.432 119.664 264.432 119.568C264.432 119.408 264.352 119.328 264.192 119.328C264.048 119.328 263.872 119.408 263.664 119.568C263.504 119.68 263.336 119.84 263.16 120.048C262.984 120.256 262.84 120.432 262.728 120.576Z"
                fill="black" />
        </g>
        <path id="Line 11" d="M44 100L552 100" stroke="#E6E6E6" stroke-linecap="round" />
        <image id="image0_1_2" data-name="image.png" x="55" y="29" width="60" height="60"
            xlink:href="{{certificateLogo}}" />

        <g id="QR">
            <image id="qr 4" x="509" y="37" width="34.7131" height="35" xlink:href="{{qrCode}}" />
        </g>
        <g id="left-column">
            <text fill="black" xml:space="preserve" style="white-space: pre" font-family="Montserrat" font-size="8"
                letter-spacing="0em">
                <tspan x="48" y="127.868">Faritra :</tspan>
                <tspan x="100" y="127.868" font-weight="bold">{{location registrar.stateId "name"}}&#10;</tspan>
                <tspan x="48" y="141.868">Distrika :</tspan>
                <tspan x="100" y="141.868" font-weight="bold">{{location registrar.districtId "name"}}&#10;</tspan>
                <tspan x="48" y="155.868">Kaominina :</tspan>
                <tspan x="100" y="155.868" font-weight="bold">{{location registrar.officeId "name"}}&#10;</tspan>
                <tspan x="48" y="183.868">Soratra n :</tspan>
                <tspan x="100" y="183.868" font-weight="bold">{{childBirthRegistrationNumber}}</tspan>
                <tspan x="48" y="197.868">Natao ny :</tspan>
                <tspan x="100" y="197.868" font-weight="bold">{{translateDateToMDGFormat registrar.date}}</tspan>
            </text>
            <text fill="black" xml:space="default" font-family="Montserrat" font-size="8" font-weight="bold"
                letter-spacing="0em">
                <tspan x="48" y="239.868">
                    {{#ifCond birthFatherFatherHasFormallyRecognisedChild '===' true }}
                    FAHATERAHANA &#38; FANJANAHANA
                    {{ else }}
                    FAHATERAHANA
                    {{/ifCond}}
                </tspan>
            </text>
            <text fill="black" xml:space="preserve" style="white-space: pre" font-family="Montserrat" font-size="8"
                letter-spacing="0em">
                <tspan x="48" y="267.868">{{childFamilyName}} &#10;</tspan>
                <tspan x="48" y="281.868">{{childFirstName}}&#10;</tspan>
                <tspan x="48" y="295.868">NUI : {{#if childNIDManual}}{{childNIDManual}}{{else}}{{childNID}}{{/if}}
                    &#10;</tspan>
                <tspan x="48" y="309.868">Teraka ny: {{translateDateToMDGFormat eventDate}}&#10;
                </tspan>
                <tspan x="48" y="594.868">&#x2028;</tspan>
                <tspan x="48" y="608.868">&#x2028;</tspan>
            </text>
            <text fill="black" xml:space="default" font-family="Montserrat" font-size="7" font-weight="bold"
                letter-spacing="0em">
                <tspan x="48" y="337.868">
                    {{#ifCond (isFirstCertificate) '===' true}}
                    Kopia Voalohany
                    {{else}}
                    Fanamarihana an-tsisiny&#10;
                    {{/ifCond}}
                </tspan>
            </text>
            <text fill="black" xml:space="preserve" style="white-space: pre" font-family="Montserrat" font-size="7"
                letter-spacing="0em">
                {{{ wrap 30 48 365.868 (mentions)}}}
            </text>


        </g>
        <g id="Frame 3">
            <g id="right-column">
                {{{wrapGroup 50 239 168.226
                text2=(join "---Kopia manontolo nadika mitovy aminny bokim-piankohonana, androany "
                (translateDate currentDate) ".---")
                bold1="MANARAKA NY SONIA"
                text1=(mainContent (location districtPlaceofbirthId "name"))}}}
            </g>
            <g id="Group 2">
                <g id="Group 1">
                    <text id="Registrar Name Surna" fill="#222222" xml:space="preserve" style="white-space: pre"
                        font-family="Montserrat" font-size="9" font-weight="600" letter-spacing="0px">
                        <tspan x="311.495" y="677.212">Ny Mpiandraikitra ny fiankohonana</tspan>
                    </text>
                    <path id="Line 10" d="M237 663L548 663" stroke="#EBEBEB" stroke-linecap="round" />
                </g>
                <rect id="Rectangle 1" x="234" y="593" width="314" height="70" fill="white" />
            </g>
        </g>
    </g>
    <defs>

        <pattern id="pattern1_1_2" patternContentUnits="objectBoundingBox" width="1" height="1">
            <use xlink:href="#image1_1_2" transform="translate(-0.05 -0.0727811) scale(0.00325444)" />
        </pattern>
        <clipPath id="clip0_1_2">
            <rect width="314" height="527.5" fill="white" transform="translate(234 157)" />
        </clipPath>
    </defs>
</svg>